<svg xmlns="http://www.w3.org/2000/svg" data-name="Calque 1" viewBox="0 0 1080 1080">
  <defs>
    <clipPath id="a">
      <path fill="none" d="M28.41 28.98h1023.17v1022.04H28.41z" />
    </clipPath>
  </defs>
  <g clip-path="url(#a)">
    <path
      fill="#0074e8"
      d="M540 1051.02c-282.09 0-511.58-229.24-511.58-511.02S257.91 28.98 540 28.98 1051.58 258.22 1051.58 540 822.08 1051.02 540 1051.02Zm0-958.71C292.83 92.31 91.75 293.15 91.75 540S292.83 987.69 540 987.69 988.26 786.85 988.26 540 787.16 92.31 540 92.31Z"
    />
  </g>
  <path
    fill="#0074e8"
    d="M750.89 446.95c-2.08 0-4.22.29-6.35.88l-22.4 6.17-23.67-57.66c-6.38-15.55-24.01-28.46-41.09-30.89H422.29c-17.08 2.43-34.71 15.34-41.09 30.89l-23.65 57.57-22.1-6.08c-2.12-.59-4.27-.89-6.34-.89-11.4.01-19.67 8.71-19.67 20.7v12.26c0 14.01 11.4 25.39 25.39 25.39h1.63l-3.38 8.23c-6.59 16.05-11.95 43.23-11.95 60.59v115.03c0 13.99 11.4 25.39 25.39 25.39h30.53c14.01 0 25.39-11.4 25.39-25.39v-28.27h274.77v28.27c0 13.99 11.39 25.39 25.39 25.39h30.52c14.01 0 25.39-11.4 25.39-25.39V574.11c0-17.36-5.37-44.54-11.95-60.59l-3.38-8.23h1.95c14.01 0 25.39-11.39 25.39-25.39v-12.26c0-11.99-8.26-20.69-19.66-20.69Zm-375.38 44.19 35.97-87.62c4.25-10.34 16.86-18.79 28.03-18.79h200.66c11.17 0 23.79 8.45 28.03 18.79l35.97 87.62c4.24 10.34-1.42 18.8-12.6 18.8H388.11c-11.17 0-16.84-8.46-12.6-18.8Zm81.25 112.84c0 5.58-4.56 10.16-10.16 10.16h-68.65c-5.59 0-10.16-4.57-10.16-10.16v-32.57c0-5.59 4.57-10.16 10.16-10.16h68.65c5.59 0 10.16 4.56 10.16 10.16v32.57Zm254.47 0c0 5.58-4.57 10.16-10.16 10.16h-68.65c-5.59 0-10.16-4.57-10.16-10.16v-32.57c0-5.59 4.57-10.16 10.16-10.16h68.65c5.58 0 10.16 4.56 10.16 10.16v32.57Z"
  />
</svg>
