<svg xmlns="http://www.w3.org/2000/svg" id="Calque_1" data-name="Calque 1" viewBox="0 0 1080 1080">
  <defs>
    <clipPath id="clippath">
      <path d="M31 31.56h1018v1016.88H31z" class="cls-1" />
    </clipPath>
    <clipPath id="clippath-1">
      <path d="M31 31.56h1018v1016.88H31z" class="cls-1" />
    </clipPath>
    <clipPath id="clippath-2">
      <path d="M31 31.56h1018v1016.88H31z" class="cls-1" />
    </clipPath>
    <style>
      .cls-1 {
        fill: none;
      }
      .cls-2 {
        fill: #0074e8;
      }
      .cls-3 {
        fill: #010101;
      }
      .cls-4 {
        fill: #7ebfff;
      }
      .cls-7 {
        fill: #fff;
      }
    </style>
  </defs>
  <g clip-path="url(#clippath)">
    <path
      fill="#0074e8"
      d="M540 1048.44c-280.66 0-508.99-228.08-508.99-508.43S259.34 31.57 540 31.57s509 228.08 509 508.44-228.34 508.43-509 508.43Zm0-953.86c-245.91 0-445.99 199.82-445.99 445.43S294.08 985.43 540 985.43s446-199.82 446-445.42S785.92 94.58 540 94.58Z"
    />
  </g>
  <path d="m587.12 431.31 40.24 23.81 59.71-36.34-42.84-25.96-57.11 38.49z" class="cls-2" />
  <path d="m666.28 472.85 40.24 23.82 59.73-36.35-42.85-25.98-57.12 38.51z" class="cls-2" />
  <path d="m666.3 455.14 16.87 10.37 28.55-20.84-12.97-10.31-32.45 20.78z" class="cls-2" />
  <path d="m587.1 413.58 16.89 10.39 28.56-20.84-12.99-10.31-32.46 20.76z" class="cls-2" />
  <g clip-path="url(#clippath-1)">
    <path
      d="M531.98 397.47c-.15 0-.32 0-.47-.02-2.77-.14-5.52-1.51-7.54-3.75-1.8-2.01-2.86-4.5-2.95-7.02-.1-2.6.83-4.92 2.61-6.52 1.54-1.4 3.52-2.19 5.88-1.99 2.77.14 5.52 1.51 7.55 3.76 3.78 4.21 3.94 10.29.34 13.53-1.45 1.3-3.35 2.01-5.41 2.01Zm-2.96-16.7c-1.42 0-2.68.46-3.64 1.34-1.2 1.07-1.82 2.66-1.74 4.47.07 1.9.88 3.8 2.28 5.36 1.56 1.73 3.64 2.78 5.72 2.89 1.49.07 2.94-.38 3.99-1.32 2.53-2.28 2.3-6.69-.52-9.83-1.57-1.73-3.65-2.79-5.73-2.9-.12 0-.24-.01-.35-.01Z"
      class="cls-3"
    />
    <path
      d="M332.9 501.73c-3.72 0-7.47-2.63-9.16-6.8-2.11-5.26-.17-11.02 4.31-12.84 1.93-.79 4.15-.73 6.21.13 2.54 1.08 4.65 3.3 5.78 6.1 2.12 5.28.19 11.04-4.3 12.85-.92.37-1.89.55-2.85.55Zm-1.96-17.58c-.66 0-1.29.12-1.91.37-3.15 1.28-4.43 5.51-2.85 9.43 1.58 3.91 5.44 6.08 8.58 4.79 3.15-1.27 4.43-5.5 2.84-9.43-.87-2.16-2.46-3.86-4.37-4.67-.77-.32-1.55-.49-2.3-.49Z"
      class="cls-3"
    />
    <path
      d="m444.3 681.87-.66-.38c-1.65-.96-164.81-95.97-172.46-99.81-1.16-.56-2.11-1.35-2.82-2.33-3.99-5.55 2.05-14.75 2.31-15.14l.42-.39c5.7-3.45 11.52-7.02 17.15-10.54h-2.23V494.9c-.05-.67-.05-1.31 0-1.92v-.47l.04.02c1.03-9.22 12.04-12.95 12.54-13.12 8.12-4.78 204.92-119.78 217.79-125.71 13.63-6.3 19.35-1.3 19.61-1.09 1.42.79 40.08 23.23 45.22 26.45 4.52 2.83 11.68-.07 11.76-.1-.02-.03 25.91-19.29 40.13-26.54 13.75-7 19.78-2.23 20.87-1.17l163.3 94.57c3.68 3.25 5.18 6.49 4.69 9.78-.98 6.52-9.62 10.54-9.99 10.71L444.29 681.87ZM272.7 565.92c-1.54 2.43-4.55 8.63-2.2 11.9.45.63 1.07 1.13 1.85 1.51 7.58 3.79 158.99 91.96 171.95 99.5l366.47-214.85c.19-.1 7.83-3.66 8.6-8.78.35-2.35-.87-4.8-3.62-7.26l-163.58-94.78s-4.85-5.04-17.87 1.6c-14.01 7.15-39.77 26.28-40.04 26.47-.62.31-8.74 3.6-14.44.06-5.11-3.19-44.97-26.33-45.37-26.57-.27-.18-5.1-4.12-16.96 1.36-12.76 5.89-215.78 124.51-217.82 125.71-.36.15-11.16 3.83-11.07 12.3 13.25 8.11 42.47 26.54 42.47 31.27s-36.45 27.3-58.37 40.55Zm15.94-68.72v55.84c20.73-12.98 38.86-25.22 39.83-27.84-.77-2.58-20.51-16.09-39.83-28Z"
      class="cls-3"
    />
    <path
      d="M445.6 749.84c-2.57 0-113.33-66.36-179.11-105.93l-.67-.4.03-.78 2.66-62.91 2.63.11-2.63 62.13c47.62 28.64 168.6 101.12 177.06 105.05 11.71-5.85 248.95-147.22 374.98-222.49L818.94 456l2.63-.06 1.65 70.15-.66.39C682.88 609.89 448.17 749.83 445.6 749.83Z"
      class="cls-3"
    />
  </g>
  <path d="m444.05 749.85-.17-69.3 2.62-.01.18 69.3-2.63.01z" class="cls-3" />
  <path d="m355.98 540.01-49.33 31.5 75.29 45.44 48.03-29.86-73.99-47.08z" class="cls-4" />
  <path d="m518.23 609.15-41.54-23.36-71.65 44.91 38.83 23.89 74.36-45.44z" class="cls-4" />
  <g clip-path="url(#clippath-2)">
    <path
      d="M355.71 555.93c1.93 0 3.51-1.56 3.51-3.51s-1.58-3.51-3.51-3.51-3.51 1.56-3.51 3.51 1.58 3.51 3.51 3.51"
      class="cls-7"
    />
    <path
      d="M362.06 585.48c1.93 0 3.51-1.56 3.51-3.51s-1.58-3.51-3.51-3.51-3.51 1.56-3.51 3.51 1.58 3.51 3.51 3.51"
      class="cls-7"
    />
    <path
      d="M348.7 577.61c1.93 0 3.51-1.56 3.51-3.51s-1.58-3.5-3.51-3.5-3.51 1.56-3.51 3.5 1.58 3.51 3.51 3.51"
      class="cls-7"
    />
    <path
      d="M337.41 567.87c1.93 0 3.51-1.56 3.51-3.51s-1.58-3.5-3.51-3.5-3.51 1.56-3.51 3.5 1.58 3.51 3.51 3.51"
      class="cls-7"
    />
    <path
      d="M392.33 582.93c1.93 0 3.51-1.56 3.51-3.51s-1.58-3.5-3.51-3.5-3.51 1.56-3.51 3.5 1.58 3.51 3.51 3.51"
      class="cls-7"
    />
    <path
      d="M379.73 574.88c1.93 0 3.51-1.56 3.51-3.51s-1.58-3.51-3.51-3.51-3.51 1.58-3.51 3.51 1.58 3.51 3.51 3.51"
      class="cls-7"
    />
    <path
      d="M368.3 564.37c1.93 0 3.51-1.56 3.51-3.5s-1.58-3.51-3.51-3.51-3.51 1.56-3.51 3.51 1.58 3.5 3.51 3.5"
      class="cls-7"
    />
    <path
      d="M380.74 597.62c3.93 2.85 7.52 4.59 8.02 3.9s-2.26-3.57-6.19-6.42c-3.93-2.87-7.52-4.61-8.03-3.91-.5.69 2.27 3.57 6.2 6.43"
      class="cls-7"
    />
    <path
      d="M429.7 630.17c.72-1.8-.15-3.84-1.94-4.57-1.79-.71-3.83.15-4.56 1.94-.71 1.8.15 3.83 1.93 4.56 1.8.72 3.85-.14 4.57-1.93"
      class="cls-7"
    />
    <path
      d="M476.74 625.19c.72-1.8-.15-3.83-1.93-4.56-1.79-.72-3.83.15-4.56 1.93-.72 1.8.15 3.84 1.93 4.57 1.79.72 3.84-.15 4.56-1.94"
      class="cls-7"
    />
    <path
      d="M462.76 633.67c.72-1.8-.14-3.83-1.93-4.56-1.79-.72-3.83.14-4.56 1.93s.15 3.84 1.93 4.57c1.8.72 3.83-.15 4.56-1.94"
      class="cls-7"
    />
    <path
      d="M450.46 642.69c.72-1.8-.15-3.83-1.94-4.56-1.79-.72-3.83.15-4.56 1.93-.72 1.8.15 3.84 1.93 4.57 1.8.72 3.84-.15 4.57-1.94"
      class="cls-7"
    />
    <path
      d="M468.39 603.06c.72-1.8-.15-3.84-1.94-4.57-1.79-.72-3.83.15-4.56 1.94-.72 1.79.15 3.83 1.93 4.56 1.8.72 3.84-.14 4.57-1.93"
      class="cls-7"
    />
    <path
      d="M455.77 612.92c.71-1.8-.15-3.84-1.93-4.56-1.79-.72-3.84.14-4.56 1.93-.72 1.8.14 3.84 1.92 4.57 1.79.71 3.84-.15 4.57-1.94"
      class="cls-7"
    />
    <path
      d="M443.44 621.76c.72-1.8-.15-3.84-1.94-4.57-1.79-.71-3.83.15-4.56 1.94s.15 3.84 1.93 4.57c1.8.71 3.84-.15 4.57-1.94"
      class="cls-7"
    />
    <path
      d="M490.22 614.27c4.12-2.57 7.08-5.24 6.63-5.98-.45-.72-4.16.77-8.27 3.34-4.11 2.57-7.08 5.25-6.63 5.96.45.75 4.16-.76 8.27-3.33"
      class="cls-7"
    />
    <path
      d="M480.26 595.94c.72-1.8-.15-3.83-1.94-4.57-1.79-.71-3.83.15-4.56 1.94-.72 1.8.15 3.83 1.93 4.56 1.8.72 3.84-.14 4.57-1.93"
      class="cls-7"
    />
    <path
      d="M405.04 590.02c1.93 0 3.51-1.56 3.51-3.51s-1.58-3.51-3.51-3.51-3.51 1.56-3.51 3.51 1.58 3.51 3.51 3.51"
      class="cls-7"
    />
  </g>
  <path
    d="M451.38 461.77 432.3 447.5l51.83-33.11 22.08 13.64-54.82 33.74Zm-14.47-14.1 14.61 10.93 49.67-30.57-17.05-10.55-47.23 30.19Z"
    class="cls-3"
  />
  <path
    d="m450.9 471.84-21.46-12.35 3.8-12.28 2.5.77-3.17 10.27 18.31 10.55 53.7-31.42-1.52-9.42 2.58-.42 1.81 11.19-.77.46-55.78 32.65z"
    class="cls-3"
  />
  <path
    d="m489.14 487.45-19.09-14.26 51.83-33.12 22.07 13.65-54.8 33.73Zm-14.48-14.11 14.62 10.93 49.65-30.57-17.04-10.54-47.23 30.19Z"
    class="cls-3"
  />
  <path
    d="m488.65 497.52-21.46-12.36 3.8-12.28 2.5.78-3.18 10.27 18.32 10.55 53.69-31.42-1.5-9.43 2.58-.41 1.79 11.19-.76.46-55.78 32.65z"
    class="cls-3"
  />
  <path
    d="m525.96 515.32-19.08-14.28 51.83-33.11 22.07 13.66-54.81 33.73Zm-14.47-14.11 14.61 10.94 49.66-30.57-17.04-10.55-47.23 30.19Z"
    class="cls-3"
  />
  <path
    d="m525.47 525.39-21.46-12.35 3.81-12.28 2.5.78-3.18 10.27 18.31 10.54 53.7-31.43-1.52-9.41 2.59-.42 1.8 11.19-.77.45-55.78 32.66z"
    class="cls-3"
  />
  <path
    d="m569.25 544.04-19.08-14.27L602 496.66l22.06 13.65-54.8 33.73Zm-14.47-14.09 14.61 10.93 49.65-30.57-17.03-10.54-47.23 30.19Z"
    class="cls-3"
  />
  <path
    d="m568.77 554.11-21.46-12.35 3.8-12.28 2.5.78-3.17 10.27 18.31 10.55 53.7-31.42-1.52-9.43 2.58-.42 1.81 11.2-.77.46-55.78 32.64z"
    class="cls-3"
  />
</svg>
