<svg xmlns="http://www.w3.org/2000/svg" id="Calque_1" data-name="Calque 1" viewBox="0 0 1080 1080">
  <defs>
    <clipPath id="clippath">
      <path fill="none" d="M31.44 32h1017.12v1016H31.44z" />
    </clipPath>
    <style>
      .cls-2 {
        fill: #0074e8;
      }
      .cls-3 {
        fill: #010101;
      }
    </style>
  </defs>
  <g clip-path="url(#clippath)">
    <path
      fill="#0074e8"
      d="M540 1048c-280.42 0-508.55-227.89-508.55-508S259.58 32.01 540 32.01 1048.56 259.89 1048.56 540 820.42 1048 540 1048Zm0-953.04C294.29 94.96 94.4 294.6 94.4 540S294.3 985.05 540 985.05 985.61 785.4 985.61 540 785.7 94.96 540 94.96Z"
    />
    <path
      fill="#7ebfff"
      d="M646.15 298.34c-12.68-9.21-30.43-6.41-39.65 6.26-9.21 12.68-6.4 30.45 6.27 39.66l46.06 33.46c12.68 9.21 30.45 6.4 39.66-6.29 9.2-12.67 6.4-30.42-6.29-39.62l-46.06-33.47Z"
    />
    <path
      d="M512.5 403.23s-18.33-5.19-4.41-20.08c13.91-14.88 29.52-30.83 29.52-30.83s9.51-7.14 17.65 1.02l31.56 24.45s6.59 6.1.92 14.92l-9.75 11.96-65.5-1.43Z"
      class="cls-2"
    />
    <path
      d="m605.83 425.96 10.52-12.56s6.8-6.78 13.58-1.7c6.8 5.09 36.65 28.84 36.65 28.84s5.09 4.76 0 13.25c-5.08 8.5-26.47 40.04-26.47 40.04s-8.83 8.14-14.94-2.03c-6.11-10.17-19.34-65.84-19.34-65.84"
      class="cls-2"
    />
    <path
      d="m516.91 427.65 52.61 1.37s11.55-1.03 13.58 9.49c2.03 10.53 13.23 45.82 13.23 45.82s7.81 25.18-17.31 12.59l-64.14-51.96s-14.26-12.9 2.03-17.31"
      class="cls-2"
    />
    <path
      d="M595.48 562.72c-14.84 0-31.97-3.04-43.36-14.61l-75.89-55.5c-.32-.29-31.81-29.12-32.8-68.58-.6-23.86 9.85-46.66 31.04-67.78 69.32-69.08 87.06-81.47 158.15-110.51.14-.07 24.87-12.16 42.46 3.7 16.66 14.99 57.02 41.94 57.43 42.21.66.44 16.01 10.82 16.01 23.45 0 6.33-5.77 37.65-11.48 65.32-10.14 49.19-13.14 56.26-14.87 57.28-.76 1.05-2.67 5.32-4.69 9.82-11.34 25.26-41.47 92.38-92.07 111.52-1.13.31-14.25 3.69-29.92 3.69Zm-117.01-72.71 75.89 55.52c22.25 22.54 69.54 10.36 70 10.24 49.11-18.59 78.82-84.76 90-109.67 3.84-8.57 4.94-10.93 6.15-11.5 4.13-7.61 24.58-106.77 24.58-119.5 0-10.79-14.34-20.5-14.49-20.59-.41-.27-40.97-27.35-57.81-42.52-15.85-14.28-38.52-3.24-38.75-3.12-70.64 28.86-88.25 41.18-157.13 109.82-20.5 20.42-30.6 42.37-30.04 65.24.91 37.17 30.07 64.68 31.61 66.09Z"
      class="cls-3"
    />
    <path
      d="M307.12 792.78h-.25c-2.14 0-6.2-3.31-9.33-25.5l-.66-39.21c.03-.54.76-10.05 8.55-22.15 7.57-11.79 162.91-207.09 169.52-215.39l2.68 2.13c-1.62 2.04-161.83 203.47-169.31 215.12-7.27 11.3-8 20.3-8.01 20.39l.65 38.84c2.44 17.21 5.25 21.3 6.12 22.19 4.49-1.37 29.33-8.97 40.75-12.79 27.52-9.18 32.06-16.12 32.1-16.19l165-214.1 2.72 2.09-164.88 213.92c-.3.58-5.01 7.91-33.86 17.54-12.57 4.2-41.25 12.94-41.54 13.03l-.25.07Z"
      class="cls-3"
    />
    <path
      d="m305.65 786.79-2.73-2.08c2.11-2.77 51.64-67.82 54.99-72.02.83-1.04 1.84-1.95 2.82-2.84 3.41-3.1 6.36-5.78 3.68-13.31-3.93-11.01 3.87-16.87 5.54-17.97l50.52-60.46c1.01-4.36.6-8.07-1.19-11.03-2.84-4.64-8.28-5.98-8.33-5.99l.78-3.34c.27.06 6.86 1.64 10.46 7.51 2.37 3.85 2.88 8.58 1.54 14.05l-.36.69-51.41 61.37c-.32.18-7.69 4.56-4.31 14.02 3.45 9.69-1.21 13.91-4.61 17-.92.84-1.78 1.62-2.44 2.44-3.32 4.18-54.42 71.28-54.94 71.96Z"
      class="cls-3"
    />
  </g>
</svg>
