<?xml version="1.0" encoding="UTF-8"?>
<svg id="Calque_1" data-name="Calque 1" xmlns="http://www.w3.org/2000/svg" xmlns:xlink="http://www.w3.org/1999/xlink" viewBox="0 0 1080 1080">
  <defs>
    <style>
      .cls-1 {
        fill: none;
      }

      .cls-2 {
        fill: #0074e8;
      }

      .cls-3 {
        fill: #010101;
      }

      .cls-4 {
        fill: #7ebfff;
      }

      .cls-5 {
        clip-path: url(#clippath-1);
      }

      .cls-6 {
        fill: #fff;
      }

      .cls-7 {
        fill: #062442;
      }

      .cls-8 {
        clip-path: url(#clippath);
      }
    </style>
    <clipPath id="clippath">
      <rect class="cls-1" x="31" y="31.56" width="1018" height="1016.87"/>
    </clipPath>
    <clipPath id="clippath-1">
      <rect class="cls-1" x="31" y="31.56" width="1018" height="1016.87"/>
    </clipPath>
  </defs>
  <g class="cls-8">
    <path class="cls-7" d="M540,1048.43c-280.66,0-509-228.09-509-508.44S259.34,31.56,540,31.56s509,228.08,509,508.43-228.34,508.44-509,508.44ZM540,94.83c-245.78,0-445.74,199.7-445.74,445.17s199.96,445.18,445.74,445.18,445.74-199.7,445.74-445.18S785.78,94.83,540,94.83Z"/>
    <path class="cls-3" d="M338.73,753.22c-14.44,0-29.07-2.11-33.54-9.96-7.1-12.51,1.36-213.95,33.04-316.44,9.88-31.98,21.13-51.33,33.44-57.53l30.95-36.11c.72-.61,13.8-10.9,29.76-8.23,9.22,1.53,19.99,6.54,28.65,10.56,5.53,2.57,10.75,4.99,12.63,4.99,3.53,0,11.33-4.93,20.36-10.64,3.15-1.99,6.52-4.12,10.08-6.29,14.06-8.56,24.51-10.32,35.88-10.32,10.16,0,45.87,5,55.89,10.35,7.52-.62,93.65-7.63,103.93-3.78,11.23,4.22,11.23,17.46,11.23,22.44,0,4.44,1.02,57.88,1.14,63.84l14.42,14.27.02.53c.07,2.27,6.49,227.1,6.49,236.1,0,10.08-15.49,51.92-61.93,64.82-46.38,12.87-252.4,1.62-261.13,1.14.04.02-24.35,4.27-37.26,26.78l-.31.54-.61.1c-1.23.21-17.05,2.82-33.12,2.82ZM427.12,327.17c-12.6,0-22.57,7.83-22.68,7.91l-31.37,36.47c-11.72,5.73-22.59,24.59-32.32,56.07-31.53,102.03-40.28,302.02-33.26,314.36,8.04,14.14,57.26,6.88,63.31,5.94,13.61-23.15,38.05-27.38,39.09-27.55,2.41.09,214.62,11.69,260.56-1.07,45-12.49,60-52.62,60-62.28,0-8.75-6.12-223.26-6.47-235.49l-14.43-14.28v-.54c-.06-2.44-1.16-59.73-1.16-64.43s0-16.4-9.52-19.97c-7.99-3.01-71,1.29-103.19,3.97l-.41.04-.36-.21c-8.98-5.13-45.13-10.2-54.95-10.2-10.92,0-20.97,1.69-34.51,9.94-3.55,2.16-6.91,4.28-10.04,6.27-10.14,6.41-17.47,11.04-21.76,11.04-2.47,0-7.2-2.2-13.75-5.24-8.52-3.95-19.11-8.87-27.97-10.34-1.64-.27-3.25-.4-4.82-.4Z"/>
    <path class="cls-3" d="M648.31,724.77c-1.08,0-1.72-.07-1.81-.07l.28-2.63c1.33.15,32.7,2.88,42.69-43.31l1.09-147.31-2.66-60.2-10.39-12.98v-.46l-.26-84.81c.01-.19.43-4.8-2.68-8.18-2.29-2.49-5.93-3.75-10.84-3.75-.15,0-.3,0-.46,0-16.5.25-105.64,8.21-106.54,8.29l-.57.05-.43-.38c-.07-.06-6.61-5.8-16.25-9.18-7.24-2.54-28.75-3.45-46.45-3.45-3.33,0-10.71,3.11-18.39,9.06-10.68,8.25-30.44,21.4-43.04,16.79-4.17-1.53-7.28-3.26-10.3-4.93-6.21-3.44-11.57-6.41-24.27-6.41h-23.35v-2.64h23.35c13.39,0,19.3,3.27,25.55,6.74,2.92,1.62,5.95,3.29,9.93,4.76,11.82,4.29,32.26-10.03,40.52-16.41,8.58-6.64,16.23-9.61,20.01-9.61,8.7,0,37.81.26,47.33,3.59,8.81,3.09,15.02,7.94,16.69,9.33,7.59-.67,90.28-8.01,106.18-8.25,6.01.01,10.42,1.46,13.3,4.62,3.9,4.27,3.36,9.83,3.34,10.07l.27,84.21,10.35,12.93.02.43,2.68,60.7-1.12,147.64c-5.5,25.56-17.53,36.55-26.66,41.33-7.39,3.87-14.02,4.4-17.1,4.4Z"/>
    <path class="cls-2" d="M462.08,626.47v-114.23s6.36-29.74,25.67-31.67c19.32-1.93,82.19,0,82.19,0,0,0,24.46,2.08,28.85,28.04v117.87s-5.13,29.08-31.96,31.16c-26.82,2.07-72.7,0-72.7,0,0,0-32.05-6.23-32.05-31.16"/>
  </g>
  <polygon class="cls-3" points="439.36 382.38 437.36 380.66 471.71 340.91 473.71 342.63 439.36 382.38"/>
  <rect class="cls-3" x="547.26" y="344.9" width="57.03" height="2.63" transform="translate(-65.64 546.13) rotate(-48.33)"/>
  <rect class="cls-3" x="670.19" y="340.29" width="49.27" height="2.63" transform="translate(-1.29 680.58) rotate(-52.14)"/>
  <polygon class="cls-3" points="687.63 457.9 685.54 456.3 721.61 409.25 723.7 410.86 687.63 457.9"/>
  <g class="cls-5">
    <path class="cls-3" d="M487.75,421.01c-10.65,0-19.32-8.66-19.32-19.32s8.66-19.32,19.32-19.32,19.32,8.66,19.32,19.32-8.66,19.32-19.32,19.32ZM487.75,385.01c-9.2,0-16.68,7.48-16.68,16.68s7.48,16.68,16.68,16.68,16.68-7.48,16.68-16.68-7.48-16.68-16.68-16.68Z"/>
    <path class="cls-3" d="M351.45,739.86c-10.65,0-19.32-8.66-19.32-19.32s8.66-19.32,19.32-19.32,19.32,8.66,19.32,19.32-8.66,19.32-19.32,19.32ZM351.45,703.87c-9.2,0-16.68,7.48-16.68,16.68s7.48,16.68,16.68,16.68,16.68-7.48,16.68-16.68-7.48-16.68-16.68-16.68Z"/>
    <path class="cls-3" d="M651.86,687.95c-10.65,0-19.32-8.66-19.32-19.32s8.66-19.32,19.32-19.32,19.31,8.66,19.31,19.32-8.66,19.32-19.31,19.32ZM651.86,651.95c-9.2,0-16.68,7.48-16.68,16.68s7.48,16.68,16.68,16.68,16.68-7.48,16.68-16.68-7.48-16.68-16.68-16.68Z"/>
    <path class="cls-4" d="M637.44,416.7c10.04,0,18.18-8.13,18.18-18.18s-8.14-18.17-18.18-18.17-18.18,8.13-18.18,18.17,8.14,18.18,18.18,18.18"/>
    <path class="cls-4" d="M406.29,638.28c14.29,0,25.87-11.33,25.87-25.31s-11.59-25.33-25.87-25.33-25.87,11.33-25.87,25.33,11.59,25.31,25.87,25.31"/>
    <path class="cls-4" d="M406.29,567.84c14.29,0,25.87-11.25,25.87-25.14s-11.59-25.13-25.87-25.13-25.87,11.26-25.87,25.13,11.59,25.14,25.87,25.14"/>
    <path class="cls-6" d="M406.28,550.68c-4.12,0-7.8-2.9-8.6-7.05-.44-2.28.03-4.59,1.33-6.52,1.31-1.94,3.31-3.26,5.63-3.71,4.76-.92,9.37,2.16,10.29,6.88.92,4.72-2.2,9.31-6.96,10.23h0c-.57.11-1.13.16-1.68.16ZM406.32,535.87c-.39,0-.79.04-1.18.11-1.63.31-3.03,1.24-3.95,2.6-.91,1.34-1.24,2.95-.93,4.54.64,3.3,3.9,5.47,7.2,4.81h0c3.33-.65,5.51-3.85,4.88-7.14-.57-2.9-3.14-4.92-6.01-4.92Z"/>
    <path class="cls-6" d="M531.19,579.78c-4.11,0-7.79-2.89-8.6-7.04-.92-4.73,2.21-9.32,6.96-10.23,4.78-.9,9.38,2.18,10.29,6.89.44,2.28-.03,4.6-1.33,6.52-1.31,1.94-3.31,3.25-5.63,3.7-.56.11-1.13.16-1.68.16ZM531.22,564.98c-.39,0-.78.04-1.17.11-3.32.64-5.51,3.85-4.87,7.15.64,3.29,3.85,5.46,7.2,4.8h0c1.62-.31,3.02-1.23,3.94-2.59.91-1.34,1.24-2.96.93-4.54-.57-2.9-3.15-4.92-6.03-4.92Z"/>
  </g>
  <rect class="cls-6" x="526.18" y="478.64" width="7.91" height="77.89"/>
  <rect class="cls-6" x="462.08" y="522.7" width="136.16" height="7.91"/>
  <rect class="cls-6" x="526.89" y="586.72" width="7.91" height="70.91"/>
  <rect class="cls-6" x="462.62" y="603.82" width="136.16" height="7.91"/>
  <rect class="cls-6" x="438.08" y="567.13" width="78.44" height="7.91"/>
  <rect class="cls-6" x="545.91" y="565.73" width="78.44" height="7.91"/>
</svg>