<?xml version="1.0" encoding="UTF-8"?>
<svg id="Calque_1" data-name="Calque 1" xmlns="http://www.w3.org/2000/svg" xmlns:xlink="http://www.w3.org/1999/xlink" viewBox="0 0 1080 1080">
  <defs>
    <style>
      .cls-1, .cls-2 {
        fill: none;
      }

      .cls-3 {
        fill: #0074e8;
      }

      .cls-4 {
        fill: #010101;
      }

      .cls-5 {
        fill: #3fb8d8;
      }

      .cls-6 {
        fill: #7ebfff;
      }

      .cls-7 {
        clip-path: url(#clippath-1);
      }

      .cls-8 {
        clip-path: url(#clippath-2);
      }

      .cls-9 {
        fill: #062442;
      }

      .cls-2 {
        stroke: #010101;
      }

      .cls-10 {
        clip-path: url(#clippath);
      }
    </style>
    <clipPath id="clippath">
      <rect class="cls-1" x="31.44" y="32" width="1017.12" height="1016"/>
    </clipPath>
    <clipPath id="clippath-1">
      <path class="cls-5" d="M394.82,534.22l104.4,41.88,16.87,98.61c12.32,18.84,62.9-5.24,62.9-5.24l6.48-91.43,92.73-40.86c3.89-18.7-11.03-58.36-11.03-58.36l-75.87,12.32c-54.46-29.83-93.38,0-93.38,0l-88.2-14.91c-15.34,8.43-14.91,57.97-14.91,57.97"/>
    </clipPath>
    <clipPath id="clippath-2">
      <rect class="cls-1" x="31.44" y="32" width="1017.12" height="1016"/>
    </clipPath>
  </defs>
  <g class="cls-10">
    <path class="cls-9" d="M540,1047.99c-280.42,0-508.55-227.89-508.55-508S259.58,32,540,32s508.56,227.88,508.56,507.99-228.14,508-508.56,508ZM540,94.95c-245.71,0-445.6,199.64-445.6,445.04s199.9,445.05,445.6,445.05,445.61-199.65,445.61-445.05S785.7,94.95,540,94.95Z"/>
  </g>
  <g>
    <path class="cls-5" d="M394.82,534.22l104.4,41.88,16.87,98.61c12.32,18.84,62.9-5.24,62.9-5.24l6.48-91.43,92.73-40.86c3.89-18.7-11.03-58.36-11.03-58.36l-75.87,12.32c-54.46-29.83-93.38,0-93.38,0l-88.2-14.91c-15.34,8.43-14.91,57.97-14.91,57.97"/>
    <g class="cls-7">
      <rect class="cls-3" x="394.39" y="461.33" width="287.7" height="232.23"/>
    </g>
  </g>
  <g class="cls-8">
    <path class="cls-4" d="M537.5,715.53c-100.11,0-181.56-81.34-181.56-181.31s81.45-181.31,181.56-181.31,181.57,81.33,181.57,181.31-81.45,181.31-181.57,181.31ZM537.5,363.4c-94.33,0-171.07,76.63-171.07,170.82s76.74,170.82,171.07,170.82,171.07-76.63,171.07-170.82-76.74-170.82-171.07-170.82Z"/>
    <path class="cls-4" d="M537.5,685.01c-82.95,0-150.44-67.65-150.44-150.8s67.49-150.8,150.44-150.8,150.44,67.65,150.44,150.8-67.49,150.8-150.44,150.8ZM537.5,393.9c-77.17,0-139.95,62.94-139.95,140.31s62.78,140.31,139.95,140.31,139.95-62.94,139.95-140.31-62.78-140.31-139.95-140.31Z"/>
    <path class="cls-2" d="M540.56,555.91c11.98,0,21.7-9.72,21.7-21.69s-9.72-21.7-21.7-21.7-21.7,9.72-21.7,21.7,9.72,21.69,21.7,21.69Z"/>
    <path class="cls-6" d="M289.11,516.45l-29.83-26.59s-20.1-4.54-7.79,13.28c12.33,17.85,37.61,36,37.61,36,0,0,9.08,11.06,22.04-7.79l33.72-35.67s3.24-16.85-11.67-9.72l-27.24,27.31s3.29-82.44,49.96-125.23c46.66-42.8,90.27-65.49,137.44-68.74,0,0,24.15-7.77.08-16.21,0,0-101.9,5.55-158.96,89.35-57.07,83.8-45.39,124-45.39,124"/>
    <path class="cls-6" d="M788.39,560l30.29,26.06s20.18,4.2,7.54-13.43c-12.62-17.62-38.23-35.32-38.23-35.32,0,0-9.26-10.89-21.91,8.16l-33.09,36.24s-2.95,16.93,11.83,9.54l26.77-27.8s-1.87,82.48-47.77,126.09c-45.91,43.62-89.12,67.08-136.23,71.13,0,0-24.02,8.2.2,16.21,0,0,101.78-7.31,157.37-92.1,55.6-84.78,43.23-124.78,43.23-124.78"/>
  </g>
</svg>