<?xml version="1.0" encoding="UTF-8"?>
<svg id="Calque_1" data-name="Calque 1" xmlns="http://www.w3.org/2000/svg" xmlns:xlink="http://www.w3.org/1999/xlink" viewBox="0 0 1080 1080">
  <defs>
    <style>
      .cls-1 {
        fill: none;
      }

      .cls-2 {
        fill: #0074e8;
      }

      .cls-3 {
        fill: #7ebfff;
      }

      .cls-4 {
        clip-path: url(#clippath-1);
      }

      .cls-5 {
        clip-path: url(#clippath-3);
      }

      .cls-6 {
        clip-path: url(#clippath-2);
      }

      .cls-7 {
        fill: #fff;
      }

      .cls-8 {
        fill: #062442;
      }

      .cls-9 {
        clip-path: url(#clippath);
      }
    </style>
    <clipPath id="clippath">
      <rect class="cls-1" x="43" y="43.55" width="994" height="992.9"/>
    </clipPath>
    <clipPath id="clippath-1">
      <rect class="cls-1" x="43" y="43.55" width="994" height="992.9"/>
    </clipPath>
    <clipPath id="clippath-2">
      <rect class="cls-1" x="43" y="43.55" width="994" height="992.9"/>
    </clipPath>
    <clipPath id="clippath-3">
      <rect class="cls-1" x="43" y="43.55" width="994" height="992.9"/>
    </clipPath>
  </defs>
  <g class="cls-9">
    <path class="cls-8" d="M540,1036.46c-274.04,0-496.99-222.71-496.99-496.45S265.96,43.56,540,43.56s497,222.71,497,496.45-222.95,496.45-497,496.45ZM540,105.08c-240.11,0-435.47,195.11-435.47,434.93s195.36,434.93,435.47,434.93,435.48-195.11,435.48-434.93S780.12,105.08,540,105.08Z"/>
    <path d="M253.98,745.73c-7.82,0-18.22-3.42-24.6-16.18-8.65-17.26-47.47-107.55-50.6-114.81-2.4-4.01-15.82-29.49,15.05-51.66,8.03-8.83,130.38-140.38,291.54-151.49,163.4-11.19,261.67,8.73,412.59,156.75,8.3,6.79,21.24,25.74,8.38,46.73l-45.01,103.67c-2.3,10.42-12.17,28.66-34.56,26.25-30.36-3.19-544.75-.11-566.8.03-1.67.43-3.72.72-6,.72ZM552.77,419.25c-21.11,0-43.21.96-66.7,2.58-161.65,11.13-283.75,147.13-284.97,148.5l-.87.79c-25.25,17.85-14,36.35-12.64,38.4l.46.85c.42.97,41.8,97.26,50.5,114.6,6.62,13.23,17.96,10.38,19.25,10.01l1.43-.22c21.92-.14,537.15-3.29,568.64.03,18.64,1.88,23.11-16.54,23.54-18.65l.32-1.02,45.54-104.78c11.71-19.19-5.42-33.78-6.15-34.4-126.69-124.21-215.51-156.7-338.34-156.7Z"/>
    <path d="M385.83,547.28c-9.97,0-18.08-8.12-18.08-18.09s8.11-18.07,18.08-18.07,18.07,8.11,18.07,18.07-8.11,18.09-18.07,18.09ZM385.83,521.38c-4.32,0-7.83,3.5-7.83,7.82s3.51,7.84,7.83,7.84,7.82-3.51,7.82-7.84-3.5-7.82-7.82-7.82Z"/>
    <path d="M686.22,547.28c-9.96,0-18.07-8.12-18.07-18.09s8.11-18.07,18.07-18.07,18.08,8.11,18.08,18.07-8.11,18.09-18.08,18.09ZM686.22,521.38c-4.32,0-7.82,3.5-7.82,7.82s3.5,7.84,7.82,7.84,7.83-3.51,7.83-7.84-3.51-7.82-7.83-7.82Z"/>
    <path class="cls-2" d="M330.36,727.86c47.96,0,86.83-37.17,86.83-83.02s-38.87-83.01-86.83-83.01-86.82,37.17-86.82,83.01,38.87,83.02,86.82,83.02"/>
  </g>
  <rect class="cls-7" x="289.16" y="644.85" width="78.58" height="17.88"/>
  <rect class="cls-7" x="251.14" y="678.43" width="163.5" height="49.42"/>
  <g class="cls-4">
    <path class="cls-2" d="M754.96,727.86c47.96,0,86.83-37.17,86.83-83.02s-38.87-83.01-86.83-83.01-86.83,37.17-86.83,83.01,38.88,83.02,86.83,83.02"/>
  </g>
  <rect class="cls-7" x="713.77" y="644.85" width="78.58" height="17.88"/>
  <rect class="cls-7" x="675.75" y="678.43" width="163.5" height="49.42"/>
  <g class="cls-6">
    <path class="cls-3" d="M542.78,714.98c69.78,0,126.35-55.48,126.35-123.92s-56.57-123.93-126.35-123.93-126.35,55.48-126.35,123.93,56.57,123.92,126.35,123.92"/>
  </g>
  <rect class="cls-7" x="423.8" y="678.79" width="237.96" height="49.07"/>
  <g class="cls-5">
    <path class="cls-7" d="M544.94,639.53c5.04,0,9.13-4.01,9.13-8.94s-4.08-8.94-9.13-8.94-9.13,4-9.13,8.94,4.08,8.94,9.13,8.94"/>
    <path class="cls-7" d="M535.82,631.79s-59.32-107.48-40.05-88.22c19.27,19.27,56.02,81.13,56.02,81.13l-15.97,7.1Z"/>
  </g>
  <polygon class="cls-7" points="456.98 655.89 460.96 661.79 466.63 657.96 462.65 652.06 456.98 655.89"/>
  <polygon class="cls-7" points="444.58 630.38 446.9 637.1 453.37 634.87 451.06 628.14 444.58 630.38"/>
  <polygon class="cls-7" points="614.14 529.64 618.89 534.93 623.97 530.35 619.22 525.07 614.14 529.64"/>
  <polygon class="cls-7" points="592.64 513.05 598.67 516.81 602.3 511.02 596.26 507.25 592.64 513.05"/>
  <polygon class="cls-7" points="568.01 503.01 574.86 504.97 576.88 497.95 569.8 496 568.01 503.01"/>
  <polygon class="cls-7" points="541.14 493.02 541.39 500.46 547.99 500.47 547.99 493.02 541.14 493.02"/>
  <polygon class="cls-7" points="513.18 498.22 514.78 504.96 521.86 502.76 519.73 495.99 513.18 498.22"/>
  <polygon class="cls-7" points="487.05 509.86 490.44 516.2 496.52 512.39 493.24 506.22 487.05 509.86"/>
  <polygon class="cls-7" points="465.14 529.21 469.9 534.49 474.98 529.02 470.07 523.54 465.14 529.21"/>
  <polygon class="cls-7" points="449.65 553.31 455.85 556.22 458.84 549.77 452.64 546.87 449.65 553.31"/>
  <polygon class="cls-7" points="440.54 580.2 447.26 581.51 448.62 574.52 441.9 573.2 440.54 580.2"/>
  <polygon class="cls-7" points="439.4 602.04 439.77 609.15 446.61 608.8 446.23 601.68 439.4 602.04"/>
  <polygon class="cls-7" points="623.97 654.6 628.9 658.65 633.16 652.07 627.33 649.03 623.97 654.6"/>
  <polygon class="cls-7" points="636.51 630.59 643.05 632.64 644.93 626.21 637.97 624.17 636.51 630.59"/>
  <polygon class="cls-7" points="641.63 597.81 641.63 604.93 648.48 604.92 648.48 597.81 641.63 597.81"/>
  <rect class="cls-7" x="639.62" y="575.12" width="6.84" height="7.1" transform="translate(-98.49 133.14) rotate(-10.99)"/>
  <polygon class="cls-7" points="628.89 551.19 632.4 557.81 639.5 553.96 636.52 547.28 628.89 551.19"/>
</svg>