<?xml version="1.0" encoding="UTF-8"?>
<svg id="Calque_1" xmlns="http://www.w3.org/2000/svg" xmlns:xlink="http://www.w3.org/1999/xlink" version="1.1" viewBox="0 0 1080 1080">
  <!-- Generator: Adobe Illustrator 29.4.0, SVG Export Plug-In . SVG Version: 2.1.0 Build 152)  -->
  <defs>
    <style>
      .st0, .st1, .st2, .st3 {
        fill: none;
      }

      .st4 {
        fill: #0074e8;
      }

      .st1 {
        stroke: #7ebfff;
      }

      .st1, .st2, .st3 {
        stroke-miterlimit: 10;
      }

      .st2 {
        stroke: #0074e8;
      }

      .st5 {
        fill: #7ebfff;
      }

      .st3 {
        stroke: #010101;
        stroke-width: 3px;
      }

      .st6 {
        clip-path: url(#clippath);
      }
    </style>
    <clipPath id="clippath">
      <rect class="st0" x="31" y="31.56" width="1018" height="1016.87"/>
    </clipPath>
  </defs>
  <g class="st6">
    <path class="st4" d="M540,1048.43c-280.66,0-509-228.09-509-508.44S259.34,31.56,540,31.56s509,228.08,509,508.43-228.34,508.44-509,508.44h0ZM540,94.83c-245.78,0-445.74,199.7-445.74,445.17s199.96,445.18,445.74,445.18,445.74-199.7,445.74-445.18S785.78,94.83,540,94.83Z"/>
  </g>
  <path class="st3" d="M781.03,617.45h-13.68l-35.86,34.92s-14.86,48.6-61.58,54.98h-258.36s-17.22-2.12-36.81-23.83l-44.83-46.72-53.8-.47s-12.51,2.12-17.93-12.03c0,0,22.41-11.68,21.47-77.86,0,0-12.03.59-17.46-.12s-12.98-4.95-14.63-8.26-3.3-20.06.71-32.32,13.68-18.64,16.75-19.35,53.8,0,54.98-.24,12.98-.47,22.18-12.03l46.48-51.2s9.91-9.67,27.37-9.91l252.22-.24s43.41-1.89,62.76,54.5c0,0,13.21,8.73,26.43,26.19,0,0,12.74,12.27,28.79.47s33.03-4.95,37.99-1.89,13.92,16.99,16.04,25.25,12.51,65.36-7.79,97.44c0,0-21.23,32.32-51.44,2.71Z"/>
  <path class="st5" d="M769.33,530.76s-.34-6.78-3.05-13.06l32.89-1.19s10.85,3.05,12.72,15.26l-42.56-1.02Z"/>
  <path class="st4" d="M545.02,527.17s-1.36-23.7-3.13-30.1,1.5-8.72,6.27-9.26,26.97-.41,26.97-.41c0,0,4.63-.27,4.77,7.36l3,32.55-37.87-.14Z"/>
  <path class="st4" d="M599.84,526.97s-1.36-23.7-3.13-30.1,1.5-8.72,6.27-9.26,26.97-.41,26.97-.41c0,0,4.63-.27,4.77,7.36l3,32.55-37.87-.14Z"/>
  <path class="st4" d="M653.78,527.11s-1.36-23.7-3.13-30.1,1.5-8.72,6.27-9.26,26.97-.41,26.97-.41c0,0,4.63-.27,4.77,7.36l3,32.55-37.87-.14Z"/>
  <rect class="st4" x="545.84" y="543.93" width="38.14" height="36.78"/>
  <rect class="st4" x="600.39" y="544.2" width="38.14" height="36.78"/>
  <rect class="st4" x="654.46" y="544.33" width="38.14" height="36.78"/>
  <path class="st4" d="M653.25,597.14l37.88.24s-2.87,29.03-4.42,33.57-2.99,5.14-8.12,6.09-24.85.48-24.85.48c0,0-6.45-.96-5.62-9.92s5.14-30.47,5.14-30.47Z"/>
  <path class="st4" d="M598.67,596.71l37.88.24s-2.87,29.03-4.42,33.57-2.99,5.14-8.12,6.09-24.85.48-24.85.48c0,0-6.45-.96-5.62-9.92s5.14-30.47,5.14-30.47Z"/>
  <path class="st4" d="M544.33,597.25l37.88.24s-2.87,29.03-4.42,33.57-2.99,5.14-8.12,6.09-24.85.48-24.85.48c0,0-6.45-.96-5.62-9.92s5.14-30.47,5.14-30.47Z"/>
  <path class="st5" d="M486.47,454.85s26.5,86.81,6.62,144.68c0,0,13.6-98.84-33.12-162.81l207.43-.17s17.08,1.39,26.84,18.48l-207.78-.17Z"/>
  <path class="st5" d="M367.24,494.07l-6.28-4.88s41.49-44.62,43.23-45.67,30.44-13.13,49.74,43.18,5.91,143.72-9.45,163.41c0,0,21.66-76.39,10.24-120.09s-18.51-62.21-32.29-74.03c0,0-10.24-5.51-18.51,1.58s-36.68,36.51-36.68,36.51Z"/>
  <path class="st5" d="M309.03,520.56s13.78,68.51-14.18,91.74c0,0,19.29-74.81-6.3-107.49l62.61-.39s12.6,1.97,14.18,16.54l-56.31-.39Z"/>
  <circle class="st2" cx="208.38" cy="496.01" r="9.19"/>
  <circle class="st2" cx="167.03" cy="413.98" r="13.78"/>
  <circle class="st2" cx="260.88" cy="400.2" r="13.12"/>
  <circle class="st2" cx="171.63" cy="517.01" r="5.25"/>
  <circle class="st2" cx="216.91" cy="580.67" r="11.16"/>
  <circle class="st2" cx="257.6" cy="571.48" r="11.16"/>
  <circle class="st1" cx="163.75" cy="461.89" r="10.5"/>
  <circle class="st1" cx="232.66" cy="450.73" r="9.84"/>
  <circle class="st1" cx="178.85" cy="584.6" r="11.16"/>
  <circle class="st1" cx="206.41" cy="539.98" r="5.91"/>
  <circle class="st1" cx="246.44" cy="590.51" r="7.87"/>
</svg>