<?xml version="1.0" encoding="UTF-8"?>
<svg id="Calque_1" xmlns="http://www.w3.org/2000/svg" xmlns:xlink="http://www.w3.org/1999/xlink" version="1.1" viewBox="0 0 1080 1080">
  <!-- Generator: Adobe Illustrator 29.4.0, SVG Export Plug-In . SVG Version: 2.1.0 Build 152)  -->
  <defs>
    <style>
      .st0 {
        fill: none;
      }

      .st1 {
        fill: #0074e8;
      }

      .st2 {
        fill: #010101;
      }

      .st3 {
        fill: #7ebfff;
      }

      .st4 {
        fill: #fff;
      }

      .st5 {
        clip-path: url(#clippath);
      }
    </style>
    <clipPath id="clippath">
      <rect class="st0" x="31" y="31.56" width="1018" height="1016.88"/>
    </clipPath>
  </defs>
  <g class="st5">
    <g>
      <path class="st1" d="M540,1048.44c-280.66,0-508.99-228.08-508.99-508.44S259.34,31.56,540,31.56s509,228.08,509,508.44-228.34,508.44-509,508.44ZM540,94.57c-245.91,0-445.99,199.82-445.99,445.43s200.07,445.43,445.99,445.43,446-199.82,446-445.43S785.92,94.57,540,94.57Z"/>
      <path class="st1" d="M527.09,756.69c111.69,0,202.21-90.39,202.21-201.93s-90.54-201.9-202.21-201.9-202.21,90.39-202.21,201.9,90.54,201.93,202.21,201.93"/>
      <path class="st2" d="M528.41,784.52c-133.13,0-241.44-108.31-241.44-241.44s108.31-241.44,241.44-241.44,241.44,108.31,241.44,241.44-108.31,241.44-241.44,241.44ZM528.41,312.14c-127.35,0-230.94,103.59-230.94,230.94s103.59,230.94,230.94,230.94,230.94-103.6,230.94-230.94-103.59-230.94-230.94-230.94Z"/>
      <path class="st4" d="M529.69,715.93c92.1,0,166.75-74.54,166.75-166.51s-74.66-166.49-166.75-166.49-166.75,74.54-166.75,166.49,74.66,166.51,166.75,166.51"/>
      <path class="st3" d="M528.88,600.81c26.88,0,48.67-21.79,48.67-48.68s-21.79-48.67-48.67-48.67-48.68,21.8-48.68,48.67,21.8,48.68,48.68,48.68"/>
      <path class="st3" d="M595.33,503.45c9.82,0,17.77-8.64,17.77-19.32s-7.95-19.31-17.77-19.31-17.77,8.65-17.77,19.31,7.95,19.32,17.77,19.32"/>
      <path class="st3" d="M595.33,639.45c9.82,0,17.77-8.65,17.77-19.32s-7.95-19.32-17.77-19.32-17.77,8.65-17.77,19.32,7.95,19.32,17.77,19.32"/>
      <path class="st3" d="M462.43,639.45c9.82,0,17.77-8.65,17.77-19.32s-7.95-19.32-17.77-19.32-17.77,8.65-17.77,19.32,7.95,19.32,17.77,19.32"/>
      <path class="st3" d="M462.43,503.45c9.82,0,17.77-8.64,17.77-19.32s-7.95-19.31-17.77-19.31-17.77,8.65-17.77,19.31,7.95,19.32,17.77,19.32"/>
      <path class="st3" d="M564.46,295.14v-7.79s-.48-9.87,15.62-4.94c0,0,71.66,15.32,99.7,39.99,0,0,5.71,2.59,0,24.92,0,0,58.15,52.97,68.02,75.81,0,0,27-3.11,28.56,3.11,1.55,6.24,33.74,70.1,31.15,110.08,0,0,1.56,6.75-8.31,6.75h-51.4s-7.79.51-9.35-12.45c-1.55-12.99-16.83-86.19-61.38-122.55-44.55-36.34-69.99-50.36-98.03-55.04,0,0-15.72,1.04-15.72-10.9s1.14-46.99,1.14-46.99"/>
      <path class="st2" d="M753.87,414.05c-9.96-20.68-64.28-73.9-64.83-74.44l7.34-7.51c2.29,2.24,56.2,55.05,66.94,77.39l-9.46,4.55h.01Z"/>
    </g>
  </g>
  <path class="st3" d="M540.68,470.86c7.1-6.78,6.89-18.52-.48-26.25-7.37-7.73-19.08-8.48-26.19-1.7s-6.89,18.53.47,26.24c7.36,7.71,19.09,8.49,26.19,1.71"/>
  <path class="st3" d="M634.56,569.26c7.1-6.78,6.89-18.53-.48-26.25-7.37-7.72-19.09-8.49-26.19-1.71-7.1,6.78-6.89,18.53.48,26.25,7.37,7.72,19.09,8.49,26.19,1.71"/>
  <path class="st3" d="M538.41,661c7.1-6.78,6.89-18.53-.48-26.25-7.37-7.72-19.09-8.49-26.19-1.71s-6.89,18.53.48,26.25c7.37,7.72,19.09,8.49,26.19,1.71"/>
  <path class="st3" d="M444.52,562.61c7.1-6.78,6.89-18.52-.48-26.25-7.37-7.73-19.08-8.48-26.19-1.7s-6.89,18.53.47,26.24c7.36,7.71,19.09,8.49,26.19,1.71"/>
</svg>