<?xml version="1.0" encoding="UTF-8"?>
<svg id="Calque_1" data-name="Calque 1" xmlns="http://www.w3.org/2000/svg" xmlns:xlink="http://www.w3.org/1999/xlink" viewBox="0 0 1080 1080">
  <defs>
    <style>
      .cls-1 {
        fill: none;
      }

      .cls-2 {
        fill: #0074e8;
      }

      .cls-3 {
        fill: #062442;
      }

      .cls-4 {
        clip-path: url(#clippath);
      }
    </style>
    <clipPath id="clippath">
      <rect class="cls-1" x="28.41" y="28.98" width="1023.17" height="1022.04"/>
    </clipPath>
  </defs>
  <g class="cls-4">
    <path class="cls-3" d="M540,1051.02c-282.09,0-511.58-229.24-511.58-511.02S257.91,28.98,540,28.98s511.58,229.24,511.58,511.02-229.5,511.02-511.58,511.02ZM540,92.31c-247.17,0-448.25,200.84-448.25,447.69s201.08,447.69,448.25,447.69,448.26-200.84,448.26-447.69S787.16,92.31,540,92.31Z"/>
  </g>
  <path class="cls-2" d="M750.89,446.95c-2.08,0-4.22.29-6.35.88l-22.4,6.17-23.67-57.66c-6.38-15.55-24.01-28.46-41.09-30.89h-235.09c-17.08,2.43-34.71,15.34-41.09,30.89l-23.65,57.57-22.1-6.08c-2.12-.59-4.27-.89-6.34-.89-11.4.01-19.67,8.71-19.67,20.7v12.26c0,14.01,11.4,25.39,25.39,25.39h1.63l-3.38,8.23c-6.59,16.05-11.95,43.23-11.95,60.59v115.03c0,13.99,11.4,25.39,25.39,25.39h30.53c14.01,0,25.39-11.4,25.39-25.39v-28.27h274.77v28.27c0,13.99,11.39,25.39,25.39,25.39h30.52c14.01,0,25.39-11.4,25.39-25.39v-115.03c0-17.36-5.37-44.54-11.95-60.59l-3.38-8.23h1.95c14.01,0,25.39-11.39,25.39-25.39v-12.26c0-11.99-8.26-20.69-19.66-20.69ZM375.51,491.14l35.97-87.62c4.25-10.34,16.86-18.79,28.03-18.79h200.66c11.17,0,23.79,8.45,28.03,18.79l35.97,87.62c4.24,10.34-1.42,18.8-12.6,18.8h-303.46c-11.17,0-16.84-8.46-12.6-18.8ZM456.76,603.98c0,5.58-4.56,10.16-10.16,10.16h-68.65c-5.59,0-10.16-4.57-10.16-10.16v-32.57c0-5.59,4.57-10.16,10.16-10.16h68.65c5.59,0,10.16,4.56,10.16,10.16v32.57ZM711.23,603.98c0,5.58-4.57,10.16-10.16,10.16h-68.65c-5.59,0-10.16-4.57-10.16-10.16v-32.57c0-5.59,4.57-10.16,10.16-10.16h68.65c5.58,0,10.16,4.56,10.16,10.16v32.57Z"/>
</svg>