<?xml version="1.0" encoding="UTF-8"?>
<svg id="Calque_1" xmlns="http://www.w3.org/2000/svg" xmlns:xlink="http://www.w3.org/1999/xlink" version="1.1" viewBox="0 0 1080 1080">
  <!-- Generator: Adobe Illustrator 29.4.0, SVG Export Plug-In . SVG Version: 2.1.0 Build 152)  -->
  <defs>
    <style>
      .st0, .st1, .st2, .st3, .st4 {
        fill: none;
      }

      .st5 {
        fill: #0074e8;
      }

      .st1, .st2, .st3, .st4 {
        stroke-miterlimit: 10;
      }

      .st1, .st3 {
        stroke: #0074e8;
      }

      .st1, .st4 {
        stroke-width: 2px;
      }

      .st2 {
        stroke: #7ebfff;
      }

      .st6 {
        fill: #7ebfff;
      }

      .st7 {
        clip-path: url(#clippath-1);
      }

      .st8 {
        clip-path: url(#clippath-3);
      }

      .st9 {
        clip-path: url(#clippath-4);
      }

      .st10 {
        clip-path: url(#clippath-2);
      }

      .st11 {
        clip-path: url(#clippath-7);
      }

      .st12 {
        clip-path: url(#clippath-6);
      }

      .st13 {
        clip-path: url(#clippath-5);
      }

      .st14 {
        fill: #fff;
      }

      .st4 {
        stroke: #000;
      }

      .st15 {
        clip-path: url(#clippath);
      }
    </style>
    <clipPath id="clippath">
      <rect class="st0" x="43" y="45.47" width="994" height="992.9"/>
    </clipPath>
    <clipPath id="clippath-1">
      <rect class="st0" x="-85.79" y="-273.95" width="994" height="992.9"/>
    </clipPath>
    <clipPath id="clippath-2">
      <rect class="st0" x="-86.91" y="105.32" width="834.76" height="833.83"/>
    </clipPath>
    <clipPath id="clippath-3">
      <rect class="st0" x="-86.91" y="105.32" width="834.76" height="833.83"/>
    </clipPath>
    <clipPath id="clippath-4">
      <rect class="st0" x="70.74" y="82.6" width="579.73" height="581.25"/>
    </clipPath>
    <clipPath id="clippath-5">
      <rect class="st0" x="324.09" y="105.32" width="834.76" height="833.83"/>
    </clipPath>
    <clipPath id="clippath-6">
      <rect class="st0" x="324.09" y="105.32" width="834.76" height="833.83"/>
    </clipPath>
    <clipPath id="clippath-7">
      <rect class="st0" x="185.69" y="81.1" width="579.73" height="581.25"/>
    </clipPath>
  </defs>
  <g class="st15">
    <path class="st5" d="M540,1038.38c-274.04,0-496.99-222.71-496.99-496.45S265.96,45.48,540,45.48s497,222.71,497,496.45-222.95,496.45-497,496.45ZM540,107c-240.11,0-435.47,195.11-435.47,434.93s195.36,434.93,435.47,434.93,435.48-195.11,435.48-434.93S780.12,107,540,107Z"/>
  </g>
  <g class="st7">
    <path d="M248.31,699.81c-7.82,0-18.22-3.42-24.6-16.18-8.65-17.26-47.47-107.55-50.6-114.81-2.4-4.01-15.82-29.49,15.05-51.66,8.03-8.83,130.38-140.38,291.54-151.49,163.4-11.19,261.67,8.73,412.59,156.75,8.3,6.79,21.24,25.74,8.38,46.73l-45.01,103.67c-2.3,10.42-12.17,28.66-34.56,26.25-30.36-3.19-544.75-.11-566.8.03-1.67.43-3.72.72-6,.72h.01ZM547.1,373.33c-21.11,0-43.21.96-66.7,2.58-161.65,11.13-283.75,147.13-284.97,148.5l-.87.79c-25.25,17.85-14,36.35-12.64,38.4l.46.85c.42.97,41.8,97.26,50.5,114.6,6.62,13.23,17.96,10.38,19.25,10.01l1.43-.22c21.92-.14,537.15-3.29,568.64.03,18.64,1.88,23.11-16.54,23.54-18.65l.32-1.02,45.54-104.78c11.71-19.19-5.42-33.78-6.15-34.4-126.69-124.21-215.51-156.7-338.34-156.7h0Z"/>
  </g>
  <rect class="st1" x="479.12" y="494.37" width="129.96" height="166.54" rx="11.75" ry="11.75"/>
  <g class="st10">
    <path class="st6" d="M332.8,669.18c58.6,0,106.11-46.59,106.11-104.07s-47.51-104.08-106.11-104.08-106.11,46.59-106.11,104.08,47.51,104.07,106.11,104.07"/>
  </g>
  <g class="st8">
    <g>
      <path class="st14" d="M334.61,605.82c4.23,0,7.67-3.37,7.67-7.51s-3.43-7.51-7.67-7.51-7.67,3.36-7.67,7.51,3.43,7.51,7.67,7.51"/>
      <path class="st14" d="M326.96,599.32s-49.82-90.26-33.63-74.09c16.18,16.18,47.05,68.13,47.05,68.13l-13.41,5.96h0Z"/>
    </g>
  </g>
  <polygon class="st14" points="260.75 619.56 264.09 624.51 268.85 621.3 265.51 616.34 260.75 619.56"/>
  <polygon class="st14" points="392.73 513.53 396.72 517.98 400.98 514.13 396.99 509.7 392.73 513.53"/>
  <polygon class="st14" points="331.42 482.78 331.63 489.03 337.18 489.04 337.18 482.78 331.42 482.78"/>
  <polygon class="st14" points="267.6 513.17 271.6 517.61 275.86 513.01 271.74 508.41 267.6 513.17"/>
  <polygon class="st14" points="244.94 563.99 250.58 565.09 251.73 559.22 246.08 558.12 244.94 563.99"/>
  <polygon class="st14" points="400.98 618.47 405.12 621.88 408.7 616.35 403.81 613.8 400.98 618.47"/>
  <rect class="st14" x="415.15" y="562.68" width="5.74" height="5.96" transform="translate(-100.17 90.07) rotate(-10.99)"/>
  <g class="st9">
    <path class="st5" d="M485.97,483.2c27.97,0,50.64-21.76,50.64-48.6s-22.67-48.59-50.64-48.59-50.64,21.76-50.64,48.59,22.68,48.6,50.64,48.6"/>
  </g>
  <g class="st13">
    <path class="st6" d="M743.8,669.18c58.6,0,106.11-46.59,106.11-104.07s-47.51-104.08-106.11-104.08-106.11,46.59-106.11,104.08,47.51,104.07,106.11,104.07"/>
  </g>
  <g class="st12">
    <g>
      <path class="st14" d="M745.61,605.82c4.23,0,7.67-3.37,7.67-7.51s-3.43-7.51-7.67-7.51-7.67,3.36-7.67,7.51,3.43,7.51,7.67,7.51"/>
      <path class="st14" d="M737.96,599.32s-49.82-90.26-33.63-74.09c16.18,16.18,47.05,68.13,47.05,68.13l-13.41,5.96h0Z"/>
    </g>
  </g>
  <polygon class="st14" points="671.75 619.56 675.09 624.51 679.85 621.3 676.51 616.34 671.75 619.56"/>
  <polygon class="st14" points="661.33 598.13 663.28 603.78 668.71 601.91 666.77 596.25 661.33 598.13"/>
  <polygon class="st14" points="803.73 513.53 807.72 517.98 811.98 514.13 807.99 509.7 803.73 513.53"/>
  <polygon class="st14" points="785.67 499.6 790.74 502.76 793.79 497.9 788.71 494.73 785.67 499.6"/>
  <polygon class="st14" points="764.99 491.17 770.74 492.82 772.44 486.92 766.49 485.28 764.99 491.17"/>
  <polygon class="st14" points="742.42 482.78 742.63 489.03 748.18 489.04 748.18 482.78 742.42 482.78"/>
  <polygon class="st14" points="718.94 487.15 720.29 492.81 726.23 490.96 724.44 485.27 718.94 487.15"/>
  <polygon class="st14" points="697 496.92 699.85 502.25 704.95 499.05 702.2 493.87 697 496.92"/>
  <polygon class="st14" points="678.6 513.17 682.6 517.61 686.86 513.01 682.74 508.41 678.6 513.17"/>
  <polygon class="st14" points="665.59 533.41 670.8 535.86 673.31 530.44 668.1 528 665.59 533.41"/>
  <polygon class="st14" points="657.94 555.99 663.58 557.09 664.73 551.22 659.08 550.12 657.94 555.99"/>
  <polygon class="st14" points="656.98 574.33 657.29 580.31 663.04 580.01 662.72 574.03 656.98 574.33"/>
  <polygon class="st14" points="811.98 618.47 816.12 621.88 819.7 616.35 814.81 613.8 811.98 618.47"/>
  <polygon class="st14" points="822.52 598.31 828.01 600.03 829.59 594.63 823.74 592.92 822.52 598.31"/>
  <polygon class="st14" points="826.81 570.78 826.81 576.76 832.57 576.75 832.57 570.78 826.81 570.78"/>
  <rect class="st14" x="825.15" y="551.68" width="5.74" height="5.96" transform="translate(-90.55 168.03) rotate(-10.99)"/>
  <polygon class="st14" points="816.12 531.63 819.06 537.19 825.03 533.96 822.52 528.35 816.12 531.63"/>
  <g class="st11">
    <path class="st5" d="M600.93,481.7c27.97,0,50.64-21.76,50.64-48.6s-22.67-48.59-50.64-48.59-50.64,21.76-50.64,48.59,22.68,48.6,50.64,48.6"/>
  </g>
  <rect class="st14" x="455.85" y="404.4" width="10" height="1.43" transform="translate(468.88 -208.43) rotate(49.43)"/>
  <rect class="st14" x="479.47" y="396.34" width="10" height="1.43" transform="translate(881.53 -87.41) rotate(90)"/>
  <rect class="st14" x="442.93" y="418.75" width="10" height="1.43" transform="translate(269.74 -167.77) rotate(30)"/>
  <polygon class="st14" points="504.68 407.66 512.33 399.8 511.43 398.56 503.78 406.43 504.68 407.66"/>
  <polygon class="st14" points="517.76 424.67 527.06 420.12 526.58 418.58 517.27 423.12 517.76 424.67"/>
  <g>
    <path class="st14" d="M489.71,460.19c3.13.24,5.83-1.71,6.04-4.34.2-2.64-2.16-4.98-5.3-5.22-3.13-.24-5.83,1.7-6.04,4.34s2.16,4.98,5.3,5.22"/>
    <path class="st14" d="M484.37,455.62s-32.39-60.31-21.22-49.09c11.17,11.23,31.43,46.06,31.43,46.06l-10.21,3.03h0Z"/>
  </g>
  <circle class="st4" cx="450.98" cy="648.97" r="13.47"/>
  <circle class="st4" cx="634.26" cy="649.93" r="13.47"/>
  <rect class="st14" x="571.5" y="409.87" width="10" height="1.43" transform="translate(513.48 -294.37) rotate(49.43)"/>
  <rect class="st14" x="595.13" y="401.82" width="10" height="1.43" transform="translate(1002.67 -197.59) rotate(90)"/>
  <rect class="st14" x="558.58" y="424.23" width="10" height="1.43" transform="translate(287.98 -224.86) rotate(30)"/>
  <polygon class="st14" points="620.33 413.14 627.98 405.28 627.08 404.04 619.43 411.9 620.33 413.14"/>
  <polygon class="st14" points="633.41 430.15 642.71 425.6 642.23 424.06 632.93 428.6 633.41 430.15"/>
  <g>
    <path class="st14" d="M606.2,466.22c3.13.24,5.83-1.71,6.04-4.34.2-2.64-2.16-4.98-5.3-5.22-3.13-.24-5.83,1.7-6.04,4.34s2.16,4.98,5.3,5.22"/>
    <path class="st14" d="M600.85,461.65s-32.39-60.31-21.22-49.09c11.17,11.23,31.43,46.06,31.43,46.06l-10.21,3.03h0Z"/>
  </g>
  <path class="st3" d="M486.39,487.59c30.43,0,55.08-23.67,55.08-52.86s-24.66-52.86-55.08-52.86-55.08,23.67-55.08,52.86,24.67,52.86,55.08,52.86"/>
  <path class="st3" d="M601.66,486c30.43,0,55.08-23.67,55.08-52.86s-24.66-52.86-55.08-52.86-55.08,23.67-55.08,52.86,24.67,52.86,55.08,52.86"/>
  <path class="st2" d="M332.78,675.51c63.54,0,115.04-49.43,115.04-110.4s-51.5-110.39-115.04-110.39-115.04,49.43-115.04,110.39,51.51,110.4,115.04,110.4"/>
  <path class="st2" d="M743.91,675.33c63.54,0,115.04-49.43,115.04-110.4s-51.5-110.39-115.04-110.39-115.04,49.43-115.04,110.39,51.51,110.4,115.04,110.4"/>
</svg>