<?xml version="1.0" encoding="UTF-8"?>
<svg id="Calque_1" data-name="Calque 1" xmlns="http://www.w3.org/2000/svg" xmlns:xlink="http://www.w3.org/1999/xlink" viewBox="0 0 1080 1080">
  <defs>
    <style>
      .cls-1 {
        fill: none;
      }

      .cls-2 {
        fill: #0074e8;
      }

      .cls-3 {
        fill: #041a2d;
      }

      .cls-4 {
        fill: #7ebfff;
      }

      .cls-5 {
        fill: #062442;
      }

      .cls-6 {
        clip-path: url(#clippath);
      }
    </style>
    <clipPath id="clippath">
      <rect class="cls-1" x="31.44" y="32" width="1017.12" height="1016"/>
    </clipPath>
  </defs>
  <g class="cls-6">
    <path class="cls-5" d="M540,1048.01c-280.41,0-508.55-227.89-508.55-508S259.58,32.01,540,32.01s508.56,227.89,508.56,508-228.14,508-508.56,508ZM540,94.96c-245.7,0-445.6,199.65-445.6,445.05s199.9,445.05,445.6,445.05,445.61-199.65,445.61-445.05S785.71,94.96,540,94.96Z"/>
    <path class="cls-3" d="M539.9,383.83l2.59-93.36h-45.39l-15.31,48.23s-28.53,11.42-30.09,14.02l-46.16-24.38-67.44,66.91,23.86,46.19s-12.97,30.08-12.44,31.64l-50.33,16.08-.35,93.89,50.15,17.11s8.82,29.57,12.45,30.1l-23.34,46.68,65.88,66.4,45.14-22.3s31.64,12.43,34.76,11.92l15.05,50.33,93.89.33,17.12-50.66s30.61-9.85,32.68-11.92l45.14,23.33,65.88-67.44-23.34-43.05s12.98-30.1,12.98-33.73l49.28-17.63.39-45.48h-94.29s4.67,98.39-87.41,139.89c0,0-68.74,32.42-129.7,0,0,0-55.76-25.61-80.41-85.43-24.64-59.81,11.68-154.52,49.29-176.56,37.6-22.03,31.12-19.45,89.49-31.13"/>
    <path class="cls-2" d="M561.94,307.31s188.06,11.74,212.7,210.1l-11.68.15s-14.41-179.12-201.1-198.59l.07-11.66Z"/>
    <path class="cls-2" d="M561.87,351.41v-11.68s160.89,15.83,180.35,177.83h-14.27s-9.08-141.52-166.08-166.15"/>
    <path class="cls-2" d="M561.87,384.85l1.63-12.44s123.47,7.54,144.22,145.15l-12.97.17s-.52-105.29-132.88-132.87"/>
    <path class="cls-4" d="M441.07,622.97l71.59-84.04s5.19-.51-1.55-14.53c-6.75-14-7.26-32.66,1.04-42,8.3-9.35,36.68-39.96,36.68-39.96,0,0,25.05-3.57,33.88,2.62l-33.88,41.47v16.6s10.01,15.57,23.5,20.76h16.6l38.9-43.57s15.57,24.12,6.97,39.68l-39.12,47.48s-31.15,3.63-40.47-3.12l-79.37,89.22-34.76-30.62Z"/>
  </g>
</svg>