<?xml version="1.0" encoding="UTF-8"?>
<svg id="Calque_1" xmlns="http://www.w3.org/2000/svg" version="1.1" viewBox="0 0 1080 1080">
  <!-- Generator: Adobe Illustrator 29.4.0, SVG Export Plug-In . SVG Version: 2.1.0 Build 152)  -->
  <defs>
    <style>
      .st0 {
        fill: #0074e8;
      }

      .st1 {
        stroke: #0a1d2d;
        stroke-width: 6px;
      }

      .st1, .st2 {
        fill: none;
        stroke-miterlimit: 10;
      }

      .st2 {
        stroke: #0074e8;
        stroke-width: 2px;
      }

      .st3 {
        fill: #7ebfff;
      }
    </style>
  </defs>
  <path class="st0" d="M540,1048c-280.42,0-508.55-227.89-508.55-508S259.58,32,540,32s508.56,227.89,508.56,508-228.14,508-508.56,508h0ZM540,94.95c-245.71,0-445.6,199.65-445.6,445.05s199.9,445.05,445.6,445.05,445.61-199.65,445.61-445.05S785.7,94.95,540,94.95Z"/>
  <path class="st1" d="M325.11,440.4c1.57-7.59,4.71-28.7,30.6-30.38s52.57-1.69,52.57-1.69c0,0,3.14-34.6,18.83-35.45,15.69-.84,69.66-.29,69.66-.29v-13.76s.19-11.24.19-11.24l-57.28-.84s-11.77,1.69-14.91-12.66,11.77-24.48,11.77-24.48l214.21,2.53s13.34,2.53,14.12,17.72-9.42,17.72-22.75,18.57-58.06.84-58.06.84l.78,23.63,69.05.84s26.68,2.53,21.97,59.92l47.08.84s23.54,6.75,24.32,36.29c.5,19.04.68,33.53.75,41.42.05,6.02,5.71,10.68,11.52,9.11,4.08-1.1,7.91-5.16,8.91-15.92,2.35-25.32,11.77-33.76,19.62-33.76h31.05c19.21,0,35.82,13.93,38.56,32.94.08.55.15,1.1.22,1.66l.74,156.07c.05,10.83-3.1,21.51-9.43,30.28-5.66,7.84-14.51,15.39-28.19,17.9-12.91,2.37-23.93-.29-32.49-4.32-10.93-5.15-18.88-14.94-22.49-26.47-1.24-3.97-2.99-7.48-5.3-7.64-5.39-.36-9.88,8.58-10.34,32.52,0,0-1.57,45.58-43.94,44.73l-202.44.84s-22.75-.84-48.65-23.63l-38.45-47.26-62.77-2.53s-23.54-3.38-28.25-28.7-4.71-75.12-4.71-75.12l-12.55-.84-1.43,81.26c-.14,7.83-3.17,15.41-8.77,20.89-3.33,3.26-7.56,5.88-12.57,5.88-13.34,0-12.55-22.79-12.55-22.79l2.52-94.03-18.11-22.67-1.67-95.99,27.46-24.48s21.97-16.88,22.75,16.88.78,74.27.78,74.27l17.46-.28.59-70.61Z"/>
  <circle class="st3" cx="477.26" cy="479.79" r="33.62"/>
  <circle class="st3" cx="600.53" cy="590.69" r="19.64"/>
  <path class="st2" d="M516.67,463.43s-16.46-25.4-40.46-23.05c-5.46.54-10.16,1.51-14.17,2.69-13.4,3.96-23.7,15.02-26.37,28.74-.62,3.18-.85,6.44-.38,9.5,1.88,12.23,6.12,19.29,23.05,31.52,14.38,10.39,96.28,74.38,120.65,93.44,7.05,5.52,15.82,8.53,24.76,8.09,2.51-.12,5.06-.52,7.48-1.33,3.63-1.21,6.43-3.83,8.56-6.83,6.17-8.67,6.39-20.22,1.12-29.46-1.99-3.5-4.8-7.23-8.74-10.75-13.17-11.76-95.49-102.55-95.49-102.55Z"/>
</svg>