<?xml version="1.0" encoding="UTF-8"?>
<svg id="Calque_1" xmlns="http://www.w3.org/2000/svg" xmlns:xlink="http://www.w3.org/1999/xlink" version="1.1" viewBox="0 0 1080 1080">
  <!-- Generator: Adobe Illustrator 29.4.0, SVG Export Plug-In . SVG Version: 2.1.0 Build 152)  -->
  <defs>
    <style>
      .st0, .st1 {
        fill: none;
      }

      .st2 {
        fill: #0074e8;
      }

      .st3 {
        fill: #010101;
      }

      .st4 {
        fill: #7ebfff;
      }

      .st1, .st5 {
        stroke: #010101;
        stroke-miterlimit: 10;
        stroke-width: 3px;
      }

      .st5 {
        fill: #fff;
      }

      .st6 {
        clip-path: url(#clippath);
      }
    </style>
    <clipPath id="clippath">
      <rect class="st0" x="43" y="43.55" width="994" height="992.9"/>
    </clipPath>
  </defs>
  <g class="st6">
    <g>
      <path class="st2" d="M540,1036.45c-274.04,0-497-222.71-497-496.45S265.96,43.55,540,43.55s496.99,222.71,496.99,496.45-222.95,496.45-496.99,496.45ZM540,105.07c-240.12,0-435.48,195.11-435.48,434.93s195.36,434.93,435.48,434.93,435.47-195.11,435.47-434.93S780.12,105.07,540,105.07Z"/>
      <path class="st2" d="M452.77,667.91h0c-9.51.55-17.81-5.71-18.45-13.93l-4.67-59.8c-.64-8.21,6.61-15.39,16.12-15.94h0c9.51-.55,17.81,5.71,18.45,13.93l4.67,59.8c.64,8.21-6.61,15.39-16.12,15.94Z"/>
      <path class="st2" d="M590.02,671.21h0c-5.42,6.77-16.27,8.47-24.1,3.79l-171.12-102.37c-7.83-4.69-9.81-14.06-4.38-20.83h0c5.42-6.77,16.27-8.47,24.1-3.79l171.12,102.37c7.83,4.69,9.81,14.06,4.38,20.83Z"/>
      <path class="st2" d="M623.39,628.3h0c-5.42,6.77-16.27,8.47-24.1,3.79l-171.12-102.37c-7.83-4.69-9.81-14.06-4.38-20.83h0c5.42-6.77,16.27-8.47,24.1-3.79l171.12,102.37c7.83,4.69,9.81,14.06,4.38,20.83Z"/>
      <path class="st2" d="M551.72,588.93h0c-8.82,3.11-18.98-.58-22.58-8.21l-31.05-65.8c-3.6-7.62.68-16.4,9.5-19.51h0c8.82-3.11,18.98.58,22.58,8.21l31.05,65.8c3.6,7.62-.68,16.4-9.5,19.51Z"/>
      <path class="st2" d="M659.19,586.36h0c-5.42,6.77-16.27,8.47-24.1,3.79l-171.12-102.37c-7.83-4.69-9.81-14.06-4.38-20.83h0c5.42-6.77,16.27-8.47,24.1-3.79l171.12,102.37c7.83,4.69,9.81,14.06,4.38,20.83h0Z"/>
      <path class="st2" d="M556.26,714.86h0c-5.42,6.77-16.27,8.47-24.1,3.79l-87.04-52.07c-7.83-4.69-9.81-14.06-4.38-20.83h0c5.42-6.77,16.27-8.47,24.1-3.79l87.04,52.07c7.83,4.69,9.81,14.06,4.38,20.83Z"/>
      <path class="st2" d="M516.18,627.56h0c-8.82,3.11-18.98-.58-22.58-8.21l-29.51-62.52c-3.6-7.62.68-16.4,9.5-19.51h0c8.82-3.11,18.98.58,22.58,8.21l29.51,62.52c3.6,7.62-.68,16.4-9.5,19.51Z"/>
      <path class="st3" d="M578.31,757.29l-.8-.45c-3.29-1.86-328.9-185.06-342.46-191.5-3.78-1.78-5.96-3.71-6.65-5.92-.44-1.38-.27-2.82.5-4.18,1.82-3.16,6.42-5.1,6.93-5.32l222.51-125.55,1.62,2.87-222.69,125.64c-1.3.55-4.43,2.14-5.5,3.98-.41.73-.34,1.24-.23,1.55.22.71,1.16,2.17,4.91,3.93,13.46,6.38,319.94,178.82,341.87,191.15l242.48-131.71s2.17-1.24,2.33-3.17c.14-1.6-1.1-3.51-3.57-5.53l-236.19-138.75-1.32-.77,1.68-2.85,237.72,139.66c3.62,2.94,5.23,5.76,4.98,8.56-.35,3.7-3.89,5.67-4.05,5.76l-244.07,132.59h.01,0Z"/>
      <path class="st3" d="M569.9,829.56c-6.93,0-10.93-1.92-11.25-2.08-13.41-7.91-326.09-192.63-330.62-195.89-4.98-3.58-6.46-15.48-6.61-16.82-.06-1.82-1.31-41.51.03-48.13,1.44-7.26,6.01-9.55,6.19-9.65l1.46,2.96-.73-1.48.75,1.48c-.14.06-3.31,1.78-4.42,7.35-1.01,5.01-.43,33.09.04,47.24.36,3.12,2.04,12.07,5.25,14.37,4.7,3.35,327.01,193.75,330.27,195.67.03,0,13.84,6.48,35.53-6.52l224.04-126.26h0s12.16-10.42,10.93-28.16l-1.31-33.32c-.44-3.42-1.93-7.55-3.17-7.55v-3.3c4.87,0,6.24,8.82,6.47,10.6l1.31,33.41c1.35,19.5-11.79,30.6-12.36,31.07l-224.24,126.4c-11.45,6.86-20.84,8.64-27.52,8.64h-.01l-.03-.03Z"/>
    </g>
  </g>
  <path class="st1" d="M581.73,225.48s20.6,90.92-23.1,122.96-103.43-1.94-103.43-1.94c0,0-32.21-24.75-17.02-121.02h143.55,0Z"/>
  <path class="st2" d="M565.16,344.61l-34.86,56.12-2.76,7.04s-17.09,10.88-34.18,0l-1.75-6-36.41-55.28s84.51,8.57,109.96-1.89h0Z"/>
  <path class="st4" d="M581.73,225.48c0,20.72-32.13,37.53-71.77,37.53s-71.77-16.8-71.77-37.53c0-1.3.13-2.58.37-3.84,3.68-18.92,34.24-33.69,71.4-33.69,39.64,0,71.77,16.8,71.77,37.53h0Z"/>
  <line class="st1" x1="583.72" y1="472.79" x2="484.66" y2="410.45"/>
  <line class="st1" x1="458.49" y1="426.25" x2="485.87" y2="409.87"/>
  <path class="st5" d="M527.71,565.44s-2.35,3.79-16.08,5.45c0,0-10.89.61-18.09-5l.07-159.42s5.8,5.84,16.52,5.54,16.98-4.42,16.98-4.42l.6,157.85Z"/>
</svg>