<?xml version="1.0" encoding="UTF-8"?>
<svg id="Calque_1" data-name="Calque 1" xmlns="http://www.w3.org/2000/svg" xmlns:xlink="http://www.w3.org/1999/xlink" viewBox="0 0 1080 1080">
  <defs>
    <style>
      .cls-1 {
        fill: none;
      }

      .cls-2 {
        fill: #0074e8;
      }

      .cls-3 {
        fill: #010101;
      }

      .cls-4 {
        fill: #7ebfff;
      }

      .cls-5 {
        clip-path: url(#clippath-1);
      }

      .cls-6 {
        clip-path: url(#clippath-2);
      }

      .cls-7 {
        fill: #fff;
      }

      .cls-8 {
        fill: #062442;
      }

      .cls-9 {
        clip-path: url(#clippath);
      }
    </style>
    <clipPath id="clippath">
      <rect class="cls-1" x="31" y="31.56" width="1018" height="1016.88"/>
    </clipPath>
    <clipPath id="clippath-1">
      <rect class="cls-1" x="31" y="31.56" width="1018" height="1016.88"/>
    </clipPath>
    <clipPath id="clippath-2">
      <rect class="cls-1" x="31" y="31.56" width="1018" height="1016.88"/>
    </clipPath>
  </defs>
  <g class="cls-9">
    <path class="cls-8" d="M540,1048.44c-280.66,0-508.99-228.08-508.99-508.43S259.34,31.57,540,31.57s509,228.08,509,508.44-228.34,508.43-509,508.43ZM540,94.58c-245.91,0-445.99,199.82-445.99,445.43s200.07,445.42,445.99,445.42,446-199.82,446-445.42S785.92,94.58,540,94.58Z"/>
  </g>
  <polygon class="cls-2" points="587.12 431.31 627.36 455.12 687.07 418.78 644.23 392.82 587.12 431.31"/>
  <polygon class="cls-2" points="666.28 472.85 706.52 496.67 766.25 460.32 723.4 434.34 666.28 472.85"/>
  <polygon class="cls-2" points="666.3 455.14 683.17 465.51 711.72 444.67 698.75 434.36 666.3 455.14"/>
  <polygon class="cls-2" points="587.1 413.58 603.99 423.97 632.55 403.13 619.56 392.82 587.1 413.58"/>
  <g class="cls-5">
    <path class="cls-3" d="M531.98,397.47c-.15,0-.32,0-.47-.02-2.77-.14-5.52-1.51-7.54-3.75-1.8-2.01-2.86-4.5-2.95-7.02-.1-2.6.83-4.92,2.61-6.52,1.54-1.4,3.52-2.19,5.88-1.99,2.77.14,5.52,1.51,7.55,3.76,3.78,4.21,3.94,10.29.34,13.53h0c-1.45,1.3-3.35,2.01-5.41,2.01ZM529.02,380.77c-1.42,0-2.68.46-3.64,1.34-1.2,1.07-1.82,2.66-1.74,4.47.07,1.9.88,3.8,2.28,5.36,1.56,1.73,3.64,2.78,5.72,2.89,1.49.07,2.94-.38,3.99-1.32h0c2.53-2.28,2.3-6.69-.52-9.83-1.57-1.73-3.65-2.79-5.73-2.9-.12,0-.24-.01-.35-.01Z"/>
    <path class="cls-3" d="M332.9,501.73c-3.72,0-7.47-2.63-9.16-6.8-2.11-5.26-.17-11.02,4.31-12.84,1.93-.79,4.15-.73,6.21.13,2.54,1.08,4.65,3.3,5.78,6.1,2.12,5.28.19,11.04-4.3,12.85h0c-.92.37-1.89.55-2.85.55ZM330.94,484.15c-.66,0-1.29.12-1.91.37-3.15,1.28-4.43,5.51-2.85,9.43,1.58,3.91,5.44,6.08,8.58,4.79h0c3.15-1.27,4.43-5.5,2.84-9.43-.87-2.16-2.46-3.86-4.37-4.67-.77-.32-1.55-.49-2.3-.49Z"/>
    <path class="cls-3" d="M444.3,681.87l-.66-.38c-1.65-.96-164.81-95.97-172.46-99.81-1.16-.56-2.11-1.35-2.82-2.33-3.99-5.55,2.05-14.75,2.31-15.14l.42-.39c5.7-3.45,11.52-7.02,17.15-10.54h-2.23v-58.38c-.05-.67-.05-1.31,0-1.92v-.47l.04.02c1.03-9.22,12.04-12.95,12.54-13.12,8.12-4.78,204.92-119.78,217.79-125.71,13.63-6.3,19.35-1.3,19.61-1.09,1.42.79,40.08,23.23,45.22,26.45,4.52,2.83,11.68-.07,11.76-.1-.02-.03,25.91-19.29,40.13-26.54,13.75-7,19.78-2.23,20.87-1.17l163.3,94.57c3.68,3.25,5.18,6.49,4.69,9.78-.98,6.52-9.62,10.54-9.99,10.71l-367.68,215.56ZM272.7,565.92c-1.54,2.43-4.55,8.63-2.2,11.9.45.63,1.07,1.13,1.85,1.51,7.58,3.79,158.99,91.96,171.95,99.5l366.47-214.85c.19-.1,7.83-3.66,8.6-8.78.35-2.35-.87-4.8-3.62-7.26l-163.58-94.78s-4.85-5.04-17.87,1.6c-14.01,7.15-39.77,26.28-40.04,26.47-.62.31-8.74,3.6-14.44.06-5.11-3.19-44.97-26.33-45.37-26.57-.27-.18-5.1-4.12-16.96,1.36-12.76,5.89-215.78,124.51-217.82,125.71-.36.15-11.16,3.83-11.07,12.3,13.25,8.11,42.47,26.54,42.47,31.27s-36.45,27.3-58.37,40.55ZM288.64,497.2v55.84c20.73-12.98,38.86-25.22,39.83-27.84-.77-2.58-20.51-16.09-39.83-28Z"/>
    <path class="cls-3" d="M445.6,749.84c-2.57,0-113.33-66.36-179.11-105.93l-.67-.4.03-.78,2.66-62.91,2.63.11-2.63,62.13c47.62,28.64,168.6,101.12,177.06,105.05,11.71-5.85,248.95-147.22,374.98-222.49l-1.61-68.62,2.63-.06,1.65,70.15-.66.39c-139.68,83.41-374.39,223.35-376.96,223.35Z"/>
  </g>
  <polygon class="cls-3" points="444.05 749.85 443.88 680.55 446.5 680.54 446.68 749.84 444.05 749.85"/>
  <polygon class="cls-4" points="355.98 540.01 306.65 571.51 381.94 616.95 429.97 587.09 355.98 540.01"/>
  <polygon class="cls-4" points="518.23 609.15 476.69 585.79 405.04 630.7 443.87 654.59 518.23 609.15"/>
  <g class="cls-6">
    <path class="cls-7" d="M355.71,555.93c1.93,0,3.51-1.56,3.51-3.51s-1.58-3.51-3.51-3.51-3.51,1.56-3.51,3.51,1.58,3.51,3.51,3.51"/>
    <path class="cls-7" d="M362.06,585.48c1.93,0,3.51-1.56,3.51-3.51s-1.58-3.51-3.51-3.51-3.51,1.56-3.51,3.51,1.58,3.51,3.51,3.51"/>
    <path class="cls-7" d="M348.7,577.61c1.93,0,3.51-1.56,3.51-3.51s-1.58-3.5-3.51-3.5-3.51,1.56-3.51,3.5,1.58,3.51,3.51,3.51"/>
    <path class="cls-7" d="M337.41,567.87c1.93,0,3.51-1.56,3.51-3.51s-1.58-3.5-3.51-3.5-3.51,1.56-3.51,3.5,1.58,3.51,3.51,3.51"/>
    <path class="cls-7" d="M392.33,582.93c1.93,0,3.51-1.56,3.51-3.51s-1.58-3.5-3.51-3.5-3.51,1.56-3.51,3.5,1.58,3.51,3.51,3.51"/>
    <path class="cls-7" d="M379.73,574.88c1.93,0,3.51-1.56,3.51-3.51s-1.58-3.51-3.51-3.51-3.51,1.58-3.51,3.51,1.58,3.51,3.51,3.51"/>
    <path class="cls-7" d="M368.3,564.37c1.93,0,3.51-1.56,3.51-3.5s-1.58-3.51-3.51-3.51-3.51,1.56-3.51,3.51,1.58,3.5,3.51,3.5"/>
    <path class="cls-7" d="M380.74,597.62c3.93,2.85,7.52,4.59,8.02,3.9.5-.69-2.26-3.57-6.19-6.42-3.93-2.87-7.52-4.61-8.03-3.91-.5.69,2.27,3.57,6.2,6.43"/>
    <path class="cls-7" d="M429.7,630.17c.72-1.8-.15-3.84-1.94-4.57-1.79-.71-3.83.15-4.56,1.94-.71,1.8.15,3.83,1.93,4.56,1.8.72,3.85-.14,4.57-1.93"/>
    <path class="cls-7" d="M476.74,625.19c.72-1.8-.15-3.83-1.93-4.56-1.79-.72-3.83.15-4.56,1.93-.72,1.8.15,3.84,1.93,4.57,1.79.72,3.84-.15,4.56-1.94"/>
    <path class="cls-7" d="M462.76,633.67c.72-1.8-.14-3.83-1.93-4.56-1.79-.72-3.83.14-4.56,1.93s.15,3.84,1.93,4.57c1.8.72,3.83-.15,4.56-1.94"/>
    <path class="cls-7" d="M450.46,642.69c.72-1.8-.15-3.83-1.94-4.56-1.79-.72-3.83.15-4.56,1.93-.72,1.8.15,3.84,1.93,4.57,1.8.72,3.84-.15,4.57-1.94"/>
    <path class="cls-7" d="M468.39,603.06c.72-1.8-.15-3.84-1.94-4.57-1.79-.72-3.83.15-4.56,1.94-.72,1.79.15,3.83,1.93,4.56,1.8.72,3.84-.14,4.57-1.93"/>
    <path class="cls-7" d="M455.77,612.92c.71-1.8-.15-3.84-1.93-4.56-1.79-.72-3.84.14-4.56,1.93-.72,1.8.14,3.84,1.92,4.57,1.79.71,3.84-.15,4.57-1.94"/>
    <path class="cls-7" d="M443.44,621.76c.72-1.8-.15-3.84-1.94-4.57-1.79-.71-3.83.15-4.56,1.94s.15,3.84,1.93,4.57c1.8.71,3.84-.15,4.57-1.94"/>
    <path class="cls-7" d="M490.22,614.27c4.12-2.57,7.08-5.24,6.63-5.98-.45-.72-4.16.77-8.27,3.34-4.11,2.57-7.08,5.25-6.63,5.96.45.75,4.16-.76,8.27-3.33"/>
    <path class="cls-7" d="M480.26,595.94c.72-1.8-.15-3.83-1.94-4.57-1.79-.71-3.83.15-4.56,1.94-.72,1.8.15,3.83,1.93,4.56,1.8.72,3.84-.14,4.57-1.93"/>
    <path class="cls-7" d="M405.04,590.02c1.93,0,3.51-1.56,3.51-3.51s-1.58-3.51-3.51-3.51-3.51,1.56-3.51,3.51,1.58,3.51,3.51,3.51"/>
  </g>
  <path class="cls-3" d="M451.38,461.77l-19.08-14.27,51.83-33.11,22.08,13.64-54.82,33.74ZM436.91,447.67l14.61,10.93,49.67-30.57-17.05-10.55-47.23,30.19Z"/>
  <polygon class="cls-3" points="450.9 471.84 429.44 459.49 433.24 447.21 435.74 447.98 432.57 458.25 450.88 468.8 504.58 437.38 503.06 427.96 505.64 427.54 507.45 438.73 506.68 439.19 450.9 471.84"/>
  <path class="cls-3" d="M489.14,487.45l-19.09-14.26,51.83-33.12,22.07,13.65-54.8,33.73ZM474.66,473.34l14.62,10.93,49.65-30.57-17.04-10.54-47.23,30.19Z"/>
  <polygon class="cls-3" points="488.65 497.52 467.19 485.16 470.99 472.88 473.49 473.66 470.31 483.93 488.63 494.48 542.32 463.06 540.82 453.63 543.4 453.22 545.19 464.41 544.43 464.87 488.65 497.52"/>
  <path class="cls-3" d="M525.96,515.32l-19.08-14.28,51.83-33.11,22.07,13.66-54.81,33.73ZM511.49,501.21l14.61,10.94,49.66-30.57-17.04-10.55-47.23,30.19Z"/>
  <polygon class="cls-3" points="525.47 525.39 504.01 513.04 507.82 500.76 510.32 501.54 507.14 511.81 525.45 522.35 579.15 490.92 577.63 481.51 580.22 481.09 582.02 492.28 581.25 492.73 525.47 525.39"/>
  <path class="cls-3" d="M569.25,544.04l-19.08-14.27,51.83-33.11,22.06,13.65-54.8,33.73ZM554.78,529.95l14.61,10.93,49.65-30.57-17.03-10.54-47.23,30.19Z"/>
  <polygon class="cls-3" points="568.77 554.11 547.31 541.76 551.11 529.48 553.61 530.26 550.44 540.53 568.75 551.08 622.45 519.66 620.93 510.23 623.51 509.81 625.32 521.01 624.55 521.47 568.77 554.11"/>
</svg>