<?xml version="1.0" encoding="UTF-8"?>
<svg id="Calque_1" xmlns="http://www.w3.org/2000/svg" xmlns:xlink="http://www.w3.org/1999/xlink" version="1.1" viewBox="0 0 1080 1080">
  <!-- Generator: Adobe Illustrator 29.4.0, SVG Export Plug-In . SVG Version: 2.1.0 Build 152)  -->
  <defs>
    <style>
      .st0, .st1, .st2, .st3, .st4, .st5, .st6, .st7, .st8 {
        fill: none;
      }

      .st9 {
        fill: #0074e8;
      }

      .st1, .st2, .st3, .st4, .st5, .st6, .st7, .st8 {
        stroke-miterlimit: 10;
      }

      .st1, .st2, .st3, .st6, .st7 {
        stroke: #0074e8;
      }

      .st1, .st8 {
        stroke-width: 2px;
      }

      .st10 {
        fill: #7ebfff;
      }

      .st3 {
        stroke-width: 3px;
      }

      .st4, .st5 {
        stroke: #010101;
      }

      .st5 {
        stroke-width: 6px;
      }

      .st6 {
        stroke-width: .25px;
      }

      .st7 {
        stroke-width: .5px;
      }

      .st11 {
        clip-path: url(#clippath);
      }

      .st8 {
        stroke: #7ebfff;
      }
    </style>
    <clipPath id="clippath">
      <rect class="st0" x="31" y="31.56" width="1018" height="1016.88"/>
    </clipPath>
  </defs>
  <g class="st11">
    <path class="st9" d="M540,1048.44c-280.66,0-508.99-228.08-508.99-508.43S259.34,31.57,540,31.57s509,228.08,509,508.44-228.34,508.43-509,508.43ZM540,94.58c-245.91,0-445.99,199.82-445.99,445.43s200.07,445.42,445.99,445.42,446-199.82,446-445.42S785.92,94.58,540,94.58Z"/>
  </g>
  <polygon class="st5" points="267 386.55 301.86 353.27 367.52 353.49 367.07 337.42 360.95 337.19 360.95 332.67 397.81 333.08 397.72 337.33 391.21 337.33 391.12 353.87 821.34 353.87 821.16 372.05 813.74 371.96 813.74 387.33 821.43 387.24 821.16 701.72 828.75 701.72 828.57 724.05 820.89 724.05 821.25 738.88 828.75 738.88 828.66 757.24 390.85 756.87 390.85 772.16 398.28 772.16 398.28 777.76 359.83 777.96 359.63 772.25 367.5 772.25 367.2 756.82 302.2 757.11 266.67 723.56 267 386.55"/>
  <polyline class="st4" points="820.82 496.43 810.88 496.51 810.88 614.75 821.15 614.75"/>
  <rect class="st1" x="394.35" y="438.78" width="152.2" height="79.02"/>
  <rect class="st1" x="413.96" y="593.61" width="161.52" height="80.43"/>
  <rect class="st1" x="614.79" y="585.24" width="75.55" height="147.73"/>
  <rect class="st7" x="325.85" y="379.93" width="2.93" height="25.27" rx="1.46" ry="1.46"/>
  <rect class="st7" x="336.26" y="379.93" width="2.93" height="25.27" rx="1.46" ry="1.46"/>
  <rect class="st7" x="345.96" y="380.08" width="2.93" height="25.27" rx="1.46" ry="1.46"/>
  <rect class="st7" x="356.75" y="380.08" width="2.93" height="25.27" rx="1.46" ry="1.46"/>
  <rect class="st7" x="366.77" y="380.08" width="2.93" height="25.27" rx="1.46" ry="1.46"/>
  <rect class="st7" x="376.63" y="380.08" width="2.93" height="25.27" rx="1.46" ry="1.46"/>
  <rect class="st7" x="387.26" y="380.08" width="2.93" height="25.27" rx="1.46" ry="1.46"/>
  <rect class="st7" x="463.57" y="392.66" width="2.93" height="25.27" rx="1.46" ry="1.46"/>
  <rect class="st7" x="474.21" y="392.92" width="2.93" height="25.27" rx="1.46" ry="1.46"/>
  <rect class="st7" x="484.72" y="392.81" width="2.93" height="25.27" rx="1.46" ry="1.46"/>
  <rect class="st7" x="495.09" y="392.89" width="2.93" height="25.27" rx="1.46" ry="1.46"/>
  <rect class="st7" x="505.77" y="392.89" width="2.93" height="25.27" rx="1.46" ry="1.46"/>
  <rect class="st7" x="516.46" y="392.65" width="2.93" height="25.27" rx="1.46" ry="1.46"/>
  <rect class="st7" x="526.82" y="392.56" width="2.93" height="25.27" rx="1.46" ry="1.46"/>
  <rect class="st7" x="408.54" y="690.9" width="2.93" height="25.27" rx="1.46" ry="1.46"/>
  <rect class="st7" x="501.67" y="690.91" width="2.93" height="25.27" rx="1.46" ry="1.46"/>
  <rect class="st7" x="491.35" y="690.79" width="2.93" height="25.27" rx="1.46" ry="1.46"/>
  <rect class="st7" x="481.15" y="691.2" width="2.93" height="25.27" rx="1.46" ry="1.46"/>
  <rect class="st7" x="470.69" y="690.91" width="2.93" height="25.27" rx="1.46" ry="1.46"/>
  <rect class="st7" x="460.25" y="690.67" width="2.93" height="25.27" rx="1.46" ry="1.46"/>
  <rect class="st7" x="450" y="690.91" width="2.93" height="25.27" rx="1.46" ry="1.46"/>
  <rect class="st7" x="439.67" y="690.8" width="2.93" height="25.27" rx="1.46" ry="1.46"/>
  <rect class="st7" x="429.27" y="691.03" width="2.93" height="25.27" rx="1.46" ry="1.46"/>
  <rect class="st7" x="418.92" y="690.9" width="2.93" height="25.27" rx="1.46" ry="1.46"/>
  <rect class="st7" x="532.6" y="691.01" width="2.93" height="25.27" rx="1.46" ry="1.46"/>
  <rect class="st7" x="553.37" y="691.01" width="2.93" height="25.27" rx="1.46" ry="1.46"/>
  <rect class="st7" x="543.04" y="691.01" width="2.93" height="25.27" rx="1.46" ry="1.46"/>
  <rect class="st7" x="522.51" y="690.91" width="2.93" height="25.27" rx="1.46" ry="1.46"/>
  <rect class="st7" x="512.07" y="691.01" width="2.93" height="25.27" rx="1.46" ry="1.46"/>
  <rect class="st7" x="563.46" y="690.89" width="2.93" height="25.27" rx="1.46" ry="1.46"/>
  <rect class="st7" x="574.14" y="691.12" width="2.93" height="25.27" rx="1.46" ry="1.46"/>
  <rect class="st7" x="330.92" y="491.58" width="2.93" height="27.31" rx="1.46" ry="1.46" transform="translate(837.62 172.85) rotate(90)"/>
  <rect class="st7" x="331.13" y="509.83" width="2.93" height="27.31" rx="1.46" ry="1.46" transform="translate(856.08 190.89) rotate(90)"/>
  <rect class="st7" x="447.83" y="516.76" width="2.93" height="27.31" rx="1.46" ry="1.46" transform="translate(979.71 81.12) rotate(90)"/>
  <rect class="st7" x="490.04" y="545.12" width="2.93" height="27.31" rx="1.46" ry="1.46" transform="translate(1050.27 67.27) rotate(90)"/>
  <rect class="st7" x="489.9" y="554.4" width="2.93" height="27.31" rx="1.46" ry="1.46" transform="translate(1059.42 76.68) rotate(90)"/>
  <rect class="st7" x="490.04" y="564.72" width="2.93" height="27.31" rx="1.46" ry="1.46" transform="translate(1069.87 86.87) rotate(90)"/>
  <rect class="st7" x="448.09" y="535.71" width="2.93" height="27.31" rx="1.46" ry="1.46" transform="translate(998.92 99.81) rotate(90)"/>
  <rect class="st7" x="448.09" y="525.78" width="2.93" height="27.31" rx="1.46" ry="1.46" transform="translate(988.98 89.88) rotate(90)"/>
  <rect class="st7" x="448.35" y="545.25" width="2.93" height="27.31" rx="1.46" ry="1.46" transform="translate(1008.72 109.09) rotate(90)"/>
  <rect class="st7" x="448.48" y="554.4" width="2.93" height="27.31" rx="1.46" ry="1.46" transform="translate(1017.99 118.11) rotate(90)"/>
  <rect class="st7" x="448.48" y="564.2" width="2.93" height="27.31" rx="1.46" ry="1.46" transform="translate(1027.8 127.91) rotate(90)"/>
  <rect class="st7" x="489.9" y="535.71" width="2.93" height="27.31" rx="1.46" ry="1.46" transform="translate(1040.73 57.99) rotate(90)"/>
  <rect class="st7" x="490.17" y="525.52" width="2.93" height="27.31" rx="1.46" ry="1.46" transform="translate(1030.8 47.54) rotate(90)"/>
  <rect class="st7" x="490.3" y="516.89" width="2.93" height="27.31" rx="1.46" ry="1.46" transform="translate(1022.31 38.78) rotate(90)"/>
  <rect class="st7" x="532.49" y="535.79" width="2.93" height="27.31" rx="1.46" ry="1.46" transform="translate(1083.4 15.49) rotate(90)"/>
  <rect class="st7" x="532.53" y="525.71" width="2.93" height="27.31" rx="1.46" ry="1.46" transform="translate(1073.36 5.38) rotate(90)"/>
  <rect class="st7" x="532.66" y="564.32" width="2.93" height="27.31" rx="1.46" ry="1.46" transform="translate(1112.1 43.85) rotate(90)"/>
  <rect class="st7" x="532.66" y="516.92" width="2.93" height="27.31" rx="1.46" ry="1.46" transform="translate(1064.7 -3.55) rotate(90)"/>
  <rect class="st7" x="532.39" y="554.43" width="2.93" height="27.31" rx="1.46" ry="1.46" transform="translate(1101.93 34.23) rotate(90)"/>
  <rect class="st7" x="532.53" y="545.22" width="2.93" height="27.31" rx="1.46" ry="1.46" transform="translate(1092.87 24.89) rotate(90)"/>
  <rect class="st7" x="353.36" y="699.14" width="2.93" height="27.31" rx="1.46" ry="1.46" transform="translate(1067.63 357.97) rotate(90)"/>
  <rect class="st7" x="353.75" y="718.29" width="2.93" height="27.31" rx="1.46" ry="1.46" transform="translate(1087.16 376.74) rotate(90)"/>
  <rect class="st7" x="720.58" y="560.32" width="3.59" height="41.52" rx="1.46" ry="1.46" transform="translate(1303.46 -141.29) rotate(90)"/>
  <rect class="st7" x="720.96" y="569.98" width="3.59" height="41.52" rx="1.46" ry="1.46" transform="translate(1313.49 -132.02) rotate(90)"/>
  <rect class="st7" x="721.28" y="593.53" width="3.59" height="41.52" rx="1.46" ry="1.46" transform="translate(1337.36 -108.78) rotate(90)"/>
  <rect class="st7" x="721.14" y="602.9" width="3.59" height="41.52" rx="1.46" ry="1.46" transform="translate(1346.6 -99.27) rotate(90)"/>
  <rect class="st7" x="710.1" y="683.76" width="3.59" height="41.52" rx="1.46" ry="1.46" transform="translate(1423.79 1409.04) rotate(-180)"/>
  <rect class="st7" x="720.29" y="684.08" width="3.59" height="41.52" rx="1.46" ry="1.46" transform="translate(1444.17 1409.68) rotate(180)"/>
  <path class="st2" d="M387.87,444.22"/>
  <path class="st2" d="M387.87,465.42v19.23c0,2.34-1.91,4.25-4.25,4.25h-79.8c-2.34,0-4.25-1.91-4.25-4.25v-61.34c0-2.34,1.91-4.25,4.25-4.25h79.8c2.34,0,4.25,1.91,4.25,4.25v18.04l-6.35,3.96.46,16.23,5.88,3.89"/>
  <path class="st2" d="M387.87,465.42"/>
  <path class="st2" d="M387.87,455.61"/>
  <path class="st2" d="M387.87,453.76"/>
  <path class="st6" d="M383.28,444.4"/>
  <line class="st6" x1="383.28" y1="443.68" x2="383.28" y2="443.71"/>
  <path class="st7" d="M383.28,462.36v21.09c0,.5-.41.91-.91.91h-78.17c-.5,0-.91-.41-.91-.91v-59.57c0-.5.41-.91.91-.91h78.17c.5,0,.91.41.91.91v19.8"/>
  <path class="st6" d="M383.28,462.36"/>
  <path class="st6" d="M383.28,446.48"/>
  <path class="st6" d="M383.28,445.24"/>
  <path class="st6" d="M383.28,444.79"/>
  <line class="st6" x1="383.28" y1="444.4" x2="383.28" y2="444.66"/>
  <path class="st2" d="M388.08,584.27v19.23c0,2.34-1.91,4.25-4.25,4.25h-79.8c-2.34,0-4.25-1.91-4.25-4.25v-61.34c0-2.34,1.91-4.25,4.25-4.25h79.8c2.34,0,4.25,1.91,4.25,4.25v18.04l-6.35,3.96.46,16.23,5.88,3.89"/>
  <path class="st7" d="M383.49,581.21v21.09c0,.5-.41.91-.91.91h-78.17c-.5,0-.91-.41-.91-.91v-59.57c0-.5.41-.91.91-.91h78.17c.5,0,.91.41.91.91v19.8"/>
  <path class="st2" d="M388.49,679.27v19.23c0,2.34-1.91,4.25-4.25,4.25h-79.8c-2.34,0-4.25-1.91-4.25-4.25v-61.34c0-2.34,1.91-4.25,4.25-4.25h79.8c2.34,0,4.25,1.91,4.25,4.25v18.04l-6.35,3.96.46,16.23,5.88,3.89"/>
  <path class="st7" d="M383.91,676.21v21.09c0,.5-.41.91-.91.91h-78.17c-.5,0-.91-.41-.91-.91v-59.57c0-.5.41-.91.91-.91h78.17c.5,0,.91.41.91.91v19.8"/>
  <path class="st10" d="M451.31,463.24h-5.25v-4.28h86.21s6.77-.41,6.36,9.81v21.14s-.28,6.49-7.18,6.77-85.52-.14-85.52-.14l.05-3.75,5.5-.04-.16-29.5Z"/>
  <path class="st10" d="M559.77,648.4l5.25-.04.03,4.28-86.21.68s-6.77.47-6.43-9.76l-.17-21.14s.23-6.5,7.13-6.83,85.52-.53,85.52-.53l-.02,3.75-5.5.09.39,29.5Z"/>
  <rect class="st7" x="737.26" y="352.55" width="11.34" height="42.6" rx="1.46" ry="1.46" transform="translate(1116.78 -369.08) rotate(90)"/>
  <rect class="st7" x="737.17" y="370.42" width="11.34" height="42.6" rx="1.46" ry="1.46" transform="translate(1134.56 -351.12) rotate(90)"/>
  <rect class="st7" x="687.63" y="492.69" width="11.34" height="42.6" rx="1.46" ry="1.46" transform="translate(1207.29 -179.31) rotate(90)"/>
  <rect class="st7" x="687.44" y="509.86" width="11.34" height="42.6" rx="1.46" ry="1.46" transform="translate(1224.28 -161.95) rotate(90)"/>
  <rect class="st7" x="613.63" y="492.69" width="11.34" height="42.6" rx="1.46" ry="1.46" transform="translate(1133.29 -105.31) rotate(90)"/>
  <rect class="st7" x="613.81" y="509.86" width="11.34" height="42.6" rx="1.46" ry="1.46" transform="translate(1150.65 -88.32) rotate(90)"/>
  <rect class="st7" x="692.6" y="540.6" width="11.34" height="36.56" rx="1.46" ry="1.46" transform="translate(1396.55 1117.76) rotate(180)"/>
  <rect class="st7" x="761.72" y="433.48" width="6.73" height="74.38" rx="1.46" ry="1.46" transform="translate(1235.75 -294.41) rotate(90)"/>
  <rect class="st7" x="722.89" y="641.63" width="7.37" height="29.4" rx="1.46" ry="1.46" transform="translate(1382.9 -70.24) rotate(90)"/>
  <rect class="st7" x="718.28" y="408.32" width="7.48" height="38.57" rx="1.46" ry="1.46" transform="translate(1444.04 855.21) rotate(180)"/>
  <rect class="st7" x="588.44" y="607.14" width="2.93" height="39.01" rx="1.46" ry="1.46"/>
  <rect class="st7" x="599.2" y="607.22" width="2.93" height="39.01" rx="1.46" ry="1.46"/>
  <rect class="st7" x="599.29" y="650.34" width="2.93" height="39.01" rx="1.46" ry="1.46"/>
  <rect class="st7" x="588.09" y="650.06" width="2.93" height="39.01" rx="1.46" ry="1.46"/>
  <line class="st1" x1="689.48" y1="694.87" x2="620.3" y2="694.87"/>
  <line class="st1" x1="687.86" y1="739.78" x2="620.3" y2="739.78"/>
  <ellipse class="st8" cx="579.36" cy="502.36" rx="2.71" ry="2.6" transform="translate(-85.89 120.96) rotate(-11.1)"/>
  <ellipse class="st8" cx="632.52" cy="379.35" rx="2.71" ry="2.6" transform="translate(-61.21 128.89) rotate(-11.1)"/>
  <path class="st10" d="M580.46,388.42h51.36s4.04-.46,4.39,3.12,0,38.89,0,38.89c0,0-.35,2.08-3.92,2.08l-6.03.14s-2.13-.1-2.03,4.02l.1,3.04-36.77-.21.03-5.66s-.12-1.07-3.1-1.07-5.37.12-5.37.12c0,0-3.25.04-3.29-3.62s-.09-37.12-.09-37.12c0,0-.13-4,4.71-3.72Z"/>
  <path class="st10" d="M580.88,449.52h51.36s4.04-.46,4.39,3.12,0,38.89,0,38.89c0,0-.35,2.08-3.92,2.08l-6.03.14s-2.13-.1-2.03,4.02l.1,3.04-36.77-.21.03-5.66s-.12-1.07-3.1-1.07-5.37.12-5.37.12c0,0-3.25.04-3.29-3.62s-.09-37.12-.09-37.12c0,0-.13-4,4.71-3.72Z"/>
  <path class="st10" d="M405.29,388.55h40.56s3.19-.37,3.46,2.51,0,31.36,0,31.36c0,0-.27,1.68-3.1,1.68l-4.76.11s-1.68-.08-1.6,3.24l.08,2.45-29.03-.17.03-4.57s-.09-.87-2.45-.87-4.24.1-4.24.1c0,0-2.56.03-2.6-2.92s-.07-29.93-.07-29.93c0,0-.1-3.22,3.72-3Z"/>
  <path class="st3" d="M618.07,384.94l12.22-11.49s5.84-2.74,7.84,3.1l.5,111.02s1.51,7.24-6.67,7.18-6.89.12-6.97,2.12c0,0,.96,3.65-4.44,3.22l-30.09.26s-3.04-.26-4.7,2.35-2.87,4.09-4.09,4.44-3.91.61-5.83-.52-2.61-4-2.78-6.09.09-111.41.09-111.41c0,0,.96-4.7,7.31-4.61s37.61.43,37.61.43Z"/>
  <path class="st10" d="M673.87,592.71l.17,91.48-4.89-.17v-5.6s-30.58.07-30.58.07c0,0-5.29.33-5.42-8.13l.13-68.19s-.13-4.82,6.87-5.15l29.74-.07.07-4.16,3.92-.07Z"/>
  <rect class="st7" x="717.91" y="476.92" width="7.81" height="22.25" rx="1.46" ry="1.46" transform="translate(1443.64 976.1) rotate(180)"/>
  <rect class="st2" x="764.53" y="398.2" width="13.92" height="31.74" transform="translate(1185.56 -357.42) rotate(90)"/>
  <rect class="st2" x="764.56" y="419.19" width="13.92" height="31.74" transform="translate(1206.58 -336.47) rotate(90)"/>
  <rect class="st2" x="764.63" y="440.17" width="13.92" height="31.74" transform="translate(1227.63 -315.55) rotate(90)"/>
  <rect class="st2" x="764.56" y="469.12" width="13.92" height="31.74" transform="translate(1256.52 -286.53) rotate(90)"/>
  <rect class="st2" x="764.43" y="491.22" width="13.92" height="31.74" transform="translate(1278.48 -264.29) rotate(90)"/>
  <rect class="st2" x="764.36" y="512.31" width="13.92" height="31.74" transform="translate(1299.5 -243.14) rotate(90)"/>
  <rect class="st2" x="764.74" y="533.6" width="13.92" height="31.74" transform="translate(1321.17 -222.23) rotate(90)"/>
  <rect class="st2" x="764.87" y="554.85" width="13.92" height="31.74" transform="translate(1342.56 -201.11) rotate(90)"/>
  <rect class="st2" x="764.74" y="575.95" width="13.92" height="31.74" transform="translate(1363.52 -179.88) rotate(90)"/>
  <rect class="st2" x="764.74" y="597.64" width="13.92" height="31.74" transform="translate(1385.21 -158.19) rotate(90)"/>
  <rect class="st2" x="764.61" y="618.95" width="13.92" height="31.74" transform="translate(1406.38 -136.75) rotate(90)"/>
  <rect class="st2" x="764.61" y="640.64" width="13.92" height="31.74" transform="translate(1428.08 -115.05) rotate(90)"/>
  <rect class="st2" x="764.73" y="683.87" width="13.92" height="31.74" transform="translate(1471.43 -71.95) rotate(90)"/>
  <rect class="st2" x="743.96" y="662.22" width="13.92" height="31.74" transform="translate(1429 -72.83) rotate(90)"/>
  <rect class="st2" x="786.09" y="662.09" width="13.92" height="31.74" transform="translate(1471.01 -115.1) rotate(90)"/>
  <rect class="st1" x="659.11" y="435.44" width="41.13" height="49.84" rx="5.8" ry="5.8"/>
  <rect class="st10" x="662.99" y="439.07" width="33.45" height="43.39" rx="3.15" ry="3.15"/>
</svg>