<svg xmlns="http://www.w3.org/2000/svg" id="Calque_1" data-name="Calque 1" viewBox="0 0 1080 1080">
  <defs>
    <clipPath id="clippath">
      <path fill="none" d="M30.85 32h1017.46v1016.34H30.85z" />
    </clipPath>
    <style>
      .cls-2 {
        fill: #0074e8;
      }
      .cls-3 {
        fill: #010101;
      }
      .cls-5 {
        fill: #7ebfff;
      }
    </style>
  </defs>
  <g clip-path="url(#clippath)">
    <path
      fill="#0074e8"
      d="M539.58 1048.35c-280.51 0-508.72-227.96-508.72-508.17S259.07 32.01 539.58 32.01s508.73 227.96 508.73 508.17-228.22 508.17-508.73 508.17Zm0-953.36c-245.79 0-445.75 199.72-445.75 445.2s199.96 445.2 445.75 445.2 445.76-199.72 445.76-445.2-199.97-445.2-445.76-445.2Z"
    />
    <path
      d="M456 626.67c37.57 0 68.03-30.21 68.03-67.46s-30.46-67.46-68.03-67.46-68.03 30.2-68.03 67.46 30.46 67.46 68.03 67.46"
      class="cls-2"
    />
    <path
      d="M661.11 619.05c20.39 0 36.92-16.89 36.92-37.71s-16.53-37.71-36.92-37.71-36.93 16.89-36.93 37.71 16.54 37.71 36.93 37.71"
      class="cls-2"
    />
    <path
      d="M455.57 659.1c-55.73 0-101.06-45.18-101.06-100.73s45.33-100.72 101.06-100.72 101.06 45.18 101.06 100.72S511.3 659.1 455.57 659.1Zm0-196.2c-52.83 0-95.81 42.83-95.81 95.47s42.98 95.48 95.81 95.48 95.81-42.83 95.81-95.48-42.98-95.47-95.81-95.47Z"
      class="cls-3"
    />
    <path
      d="M588.47 701.67c-30.51 0-62.19-1.05-91.78-2.97-102.78-6.67-127.61-16.09-144.24-25.17-16.26-8.89-33.51-19.63-50-44.32-16-23.96-34.96-149.24-35.76-154.56 1.07-36.47 12.65-62.13 34.37-77.22 40.71-28.31 101.97-9.01 106.85-7.4C631 444.34 761.42 526.82 762.63 527.63c17.76 11.81 30.92 52.85 28.18 76.04-2.51 21.24-21.93 67.39-57.44 82.99-24.03 10.55-81.96 15.03-144.89 15.03ZM356.82 392.71c-16.78 0-35.08 3.11-49.8 13.35-18.82 13.1-28.88 35.97-29.89 67.97 5.29 34.66 21.85 131.07 34.06 149.35 15.18 22.73 30.56 32.34 46.3 40.95 14.91 8.14 39.26 17.37 139.89 23.9 104.19 6.76 201.64 2.04 231.77-11.2 28.82-12.65 48.59-52.14 51.24-74.61 2.49-20.95-10.51-57.38-23.56-66.06-1.2-.8-130.1-82.3-351.6-136.2l-.43-.12c-.36-.12-22.39-7.34-47.96-7.34Z"
      class="cls-3"
    />
    <path
      d="M306.23 554.01s22.05-121.96 136.22-120.66c0 0-103.44-49.01-137.34-1.15 0 0-27.42 11.52 1.12 121.81"
      class="cls-5"
    />
    <path
      d="M636.03 533.51s10.89-17.91-7.53-12.46c-18.42 5.45-39.44 40.58-38.14 69.28 1.29 28.71 24.4 46.7 24.4 46.7s56.55 47.53 105.86-15.56c0 0 7.78-17.65-11.42-8.56 0 0-11.93 19.46-31.92 24.65-19.98 5.18-45.67-.52-55.78-12.72-10.13-12.2-22.32-27.5-13.5-60.19 0 0 6.49-19.72 28.02-31.14"
      class="cls-5"
    />
  </g>
</svg>
