<?xml version="1.0" encoding="UTF-8"?>
<svg id="Calque_1" xmlns="http://www.w3.org/2000/svg" xmlns:xlink="http://www.w3.org/1999/xlink" version="1.1" viewBox="0 0 1080 1080">
  <!-- Generator: Adobe Illustrator 29.4.0, SVG Export Plug-In . SVG Version: 2.1.0 Build 152)  -->
  <defs>
    <style>
      .st0 {
        fill: none;
      }

      .st1 {
        fill: #0074e8;
      }

      .st2 {
        fill: #010101;
      }

      .st3 {
        fill: #7ebfff;
      }

      .st4 {
        clip-path: url(#clippath);
      }
    </style>
    <clipPath id="clippath">
      <rect class="st0" x="30.85" y="32" width="1017.46" height="1016.34"/>
    </clipPath>
  </defs>
  <g class="st4">
    <path class="st1" d="M539.58,1048.35c-280.51,0-508.72-227.96-508.72-508.17S259.07,32.01,539.58,32.01s508.73,227.96,508.73,508.17-228.22,508.17-508.73,508.17h0ZM539.58,94.99c-245.79,0-445.75,199.72-445.75,445.2s199.96,445.2,445.75,445.2,445.76-199.72,445.76-445.2S785.37,94.99,539.58,94.99Z"/>
  </g>
  <path class="st2" d="M468.96,705.09c29.75,0,60.65-1.05,89.51-2.97,100.23-6.67,124.45-16.09,140.67-25.17,15.86-8.89,32.68-19.63,48.76-44.32,15.6-23.96,34.09-149.24,34.87-154.56-1.04-36.47-12.34-62.13-33.52-77.22-39.7-28.31-99.44-9.01-104.2-7.4-217.56,54.31-344.75,136.79-345.93,137.6-17.32,11.81-30.15,52.85-27.48,76.04,2.45,21.24,21.39,67.39,56.02,82.99,23.43,10.55,79.93,15.03,141.3,15.03v-.02h0ZM694.87,396.13c16.36,0,34.21,3.11,48.57,13.35,18.35,13.1,28.16,35.97,29.15,67.97-5.16,34.66-21.31,131.07-33.22,149.35-14.8,22.73-29.8,32.34-45.15,40.95-14.54,8.14-38.29,17.37-136.42,23.9-101.61,6.76-196.64,2.04-226.03-11.2-28.11-12.65-47.39-52.14-49.97-74.61-2.43-20.95,10.25-57.38,22.98-66.06,1.17-.8,126.88-82.3,342.89-136.2l.42-.12c.35-.12,21.84-7.34,46.77-7.34h.02-.01Z"/>
  <path class="st1" d="M647.83,625.77c-41.15,0-74.51-32.26-74.51-72.03s33.36-72.03,74.51-72.03,74.51,32.25,74.51,72.03-33.36,72.03-74.51,72.03"/>
  <path class="st1" d="M470.59,638.33c-33.67,0-60.96-27.27-60.96-60.88s27.29-60.88,60.96-60.88,60.98,27.27,60.98,60.88-27.31,60.88-60.98,60.88"/>
  <path class="st2" d="M649.34,647.12c53,0,96.11-41.89,96.11-93.39s-43.11-93.38-96.11-93.38-96.11,41.89-96.11,93.38,43.11,93.39,96.11,93.39ZM649.34,465.21c50.24,0,91.12,39.71,91.12,88.51s-40.88,88.52-91.12,88.52-91.12-39.71-91.12-88.52,40.88-88.51,91.12-88.51h0Z"/>
  <path class="st2" d="M470.52,650.42c41.32,0,74.93-32.65,74.93-72.8s-33.61-72.8-74.93-72.8-74.93,32.65-74.93,72.8,33.61,72.8,74.93,72.8h0ZM470.52,508.62c39.17,0,71.03,30.96,71.03,69s-31.87,69.01-71.03,69.01-71.03-30.96-71.03-69.01,31.87-69,71.03-69Z"/>
  <path class="st3" d="M514.81,451.26s115.3-37.26,152.43-44.18c24.09-4.49,85.08-3.31,91.7,45.65,1.39,10.27-7.65,18.92-17.86,17.15-48.44-8.4-74.55-30.29-226.27-18.62Z"/>
  <path class="st3" d="M648.43,634.01c45.59,0,82.68-36.23,82.68-80.77s-37.08-80.76-82.68-80.76-82.68,36.23-82.68,80.76,37.08,80.77,82.68,80.77ZM648.43,476.7c43.22,0,78.38,34.34,78.38,76.55s-35.16,76.56-78.38,76.56-78.38-34.34-78.38-76.56,35.16-76.55,78.38-76.55Z"/>
  <path class="st3" d="M470.66,645.19c38.04,0,68.98-30.06,68.98-67.02s-30.94-67.02-68.98-67.02-68.98,30.06-68.98,67.02,30.94,67.02,68.98,67.02ZM470.66,514.64c36.06,0,65.39,28.5,65.39,63.52s-29.34,63.53-65.39,63.53-65.39-28.5-65.39-63.53,29.34-63.52,65.39-63.52h0Z"/>
  <path class="st1" d="M339.48,632.32c-18.33,0-33.19-14.85-33.19-33.15s14.86-33.15,33.19-33.15,33.2,14.85,33.2,33.15-14.87,33.15-33.2,33.15"/>
  <path class="st2" d="M339.44,638.91c22.5,0,40.79-17.78,40.79-39.64s-18.3-39.63-40.79-39.63-40.79,17.78-40.79,39.63,18.3,39.64,40.79,39.64ZM339.44,561.7c21.33,0,38.67,16.85,38.67,37.57s-17.35,37.57-38.67,37.57-38.67-16.85-38.67-37.57,17.35-37.57,38.67-37.57Z"/>
  <path class="st3" d="M339.52,636.06c20.71,0,37.56-16.37,37.56-36.49s-16.85-36.49-37.56-36.49-37.56,16.37-37.56,36.49,16.85,36.49,37.56,36.49ZM339.52,564.98c19.63,0,35.6,15.52,35.6,34.59s-15.97,34.59-35.6,34.59-35.6-15.52-35.6-34.59,15.97-34.59,35.6-34.59Z"/>
</svg>