<?xml version="1.0" encoding="UTF-8"?>
<svg id="Calque_1" data-name="Calque 1" xmlns="http://www.w3.org/2000/svg" xmlns:xlink="http://www.w3.org/1999/xlink" viewBox="0 0 1080 1080">
  <defs>
    <style>
      .cls-1 {
        fill: none;
      }

      .cls-2 {
        fill: #0074e8;
      }

      .cls-3 {
        fill: #010101;
      }

      .cls-4 {
        fill: #7ebfff;
      }

      .cls-5 {
        clip-path: url(#clippath-1);
      }

      .cls-6 {
        clip-path: url(#clippath-2);
      }

      .cls-7 {
        fill: #fff;
      }

      .cls-8 {
        fill: #062442;
      }

      .cls-9 {
        clip-path: url(#clippath);
      }
    </style>
    <clipPath id="clippath">
      <rect class="cls-1" x="31.44" y="32" width="1017.12" height="1016"/>
    </clipPath>
    <clipPath id="clippath-1">
      <rect class="cls-1" x="31.44" y="32" width="1017.12" height="1016"/>
    </clipPath>
    <clipPath id="clippath-2">
      <rect class="cls-1" x="31.44" y="32" width="1017.12" height="1016"/>
    </clipPath>
  </defs>
  <g class="cls-9">
    <path class="cls-2" d="M384.75,468.07c-16.43,0-29.74,13.32-29.74,29.74v176.4c0,16.43,13.31,29.73,29.74,29.73h118.2c16.42,0,29.73-13.3,29.73-29.73v-176.4c0-16.42-13.31-29.74-29.73-29.74h-118.2Z"/>
  </g>
  <rect class="cls-7" x="509.02" y="454.52" width="10.27" height="258.73"/>
  <rect class="cls-7" x="368.62" y="455.11" width="10.27" height="258.74"/>
  <rect class="cls-7" x="393.62" y="454.6" width="10.27" height="258.73"/>
  <rect class="cls-7" x="416.82" y="454.53" width="10.27" height="258.73"/>
  <rect class="cls-7" x="438.47" y="454.62" width="10.27" height="258.74"/>
  <rect class="cls-7" x="462.33" y="454.89" width="10.27" height="258.73"/>
  <rect class="cls-7" x="485.69" y="454.94" width="10.27" height="258.73"/>
  <g class="cls-5">
    <path class="cls-3" d="M385.1,731.6c-23.86,0-39.51-.12-42.32-.4-16.37-1.64-17.83-17.24-17.84-17.4v-21.32c-7.4.6-13.27-.74-17.49-4.11-5.26-4.19-5.93-9.91-5.95-10.15-.71-8.43,1.13-14.67,5.49-18.58,5.24-4.72,12.55-4.61,15.68-4.31l1.72-120.24c-3.08-.05-10.63-.24-12.89-1.16-2.43-.96-8.85-7.84-8.85-17.64,0-7.75,6.94-13.61,10.04-15.84l-5.71-5.14c-.48-.61-7.05-10.06-2.93-19.77,3.5-8.25,14.76-8.73,18.6-8.7v-9c0-23.06,16.13-23.33,16.3-23.33h45.36v2.62h-45.36c-.55,0-13.67.35-13.67,20.71v11.8l-1.42-.12c-.15,0-13.92-1.1-17.38,7.04-3.56,8.35,2.39,16.93,2.45,17.01l8.08,7.23-1.52.92c-.1.06-10.22,6.29-10.22,14.56s5.73,14.63,7.2,15.21c1.5.6,8.04.98,13.25.98h1.33l-1.8,125.93-1.54-.29c-.1-.01-9.26-1.69-14.98,3.48-3.7,3.34-5.25,8.85-4.62,16.37,0,.02.6,4.89,5.02,8.38,3.93,3.1,9.63,4.26,16.97,3.38l1.47-.17v24.14c.04.45,1.32,13.47,15.49,14.89,15.19,1.53,430.03-2.03,434.22-2.07l.34.04c.13.03,3.73.87,6.98-1.66,3.57-2.8,5.46-8.77,5.46-17.29v-17.86l1.28-.03c.14,0,13.72-.38,19.72-6.74,1.97-2.08,2.87-4.52,2.77-7.44-.47-13.9-7.02-16.36-22.5-16.88l-1.27-.04v-126.46l1.75.63c.08.03,7.15,2.47,12.88-1.13,4.2-2.63,6.76-7.85,7.6-15.51.05-.43,1.15-9.75-9.45-13l-3.11-.96,2.91-1.47c.44-.22,10.6-5.51,9.65-18.42-.84-11.26-11.04-12.77-20.91-12.77h-1.31v-18.16c0-.14.27-4.94-3.02-8.35-2.43-2.51-6.17-3.76-11.25-3.55l-42.83-.52.03-2.62,42.78.52c5.81-.18,10.22,1.29,13.19,4.38,4.1,4.26,3.75,9.99,3.73,10.23v15.45c6.86.06,21.16.98,22.22,15.19.79,10.66-5.33,16.85-8.8,19.47,10.08,4.58,8.81,14.78,8.79,14.89-.93,8.47-3.9,14.34-8.83,17.42-4.99,3.11-10.58,2.48-13.38,1.85v120.35c15.35.66,23.25,4.05,23.77,19.35.13,3.62-1.05,6.76-3.49,9.34-5.66,5.99-16.54,7.23-20.28,7.49v15.33c0,9.52-2.19,16.04-6.51,19.39-3.86,2.99-8.08,2.36-9.02,2.15-15.66.14-285.49,2.46-392.05,2.46Z"/>
    <path class="cls-3" d="M712.46,725.94c0-.95-.61-94.58-.61-106.89,0-9.48,3.04-10.07,8.01-10.24,1.83-.07,3.92-.14,6.3-.87,7.29-2.22,6.63-9.19,6.6-9.49-.02-.85-1.14-73.18-1.14-82.23,0-7.84-.96-7.84-10.18-7.84-3.54,0-5.99-.95-7.3-2.84-1.48-2.13-.89-4.68-.65-5.49l-.52-48.8,2.62-.03.52,49.26-.08.23s-.7,1.97.27,3.35c.78,1.11,2.55,1.7,5.13,1.7,9.05,0,12.8,0,12.8,10.46,0,9.04,1.12,81.34,1.13,82.07.36,3.11-.92,9.86-8.44,12.16-2.71.83-5.08.91-6.97.98-4.1.14-5.48.18-5.48,7.62,0,12.31.6,105.93.61,106.87l-2.62.02Z"/>
    <path class="cls-3" d="M691.7,725.93c0-.96-.61-95.64-.61-111.55,0-14,3.27-15.63,10.08-17.73,1.07-.33,2.22-.68,3.48-1.14,7.12-2.62,10.21-10.47,10.69-11.81-.09-3.49-1.13-44.23-1.13-54.91,0-3.34-.8-5.68-2.39-6.97-2-1.64-4.7-1.09-4.72-1.09l-.18.04-.19-.02c-14.34-1.13-14.51-13.57-14.51-13.69l.51-55.85,2.62.02-.51,55.84c0,.39.2,10.04,11.93,11.05.85-.16,4.07-.48,6.69,1.63,2.25,1.81,3.39,4.85,3.39,9.03,0,11.07,1.12,54.64,1.13,55.08v.22s-.06.21-.06.21c-.13.43-3.37,10.37-12.36,13.67-1.3.48-2.51.85-3.61,1.19-5.82,1.79-8.23,2.54-8.23,15.22,0,15.9.6,110.58.61,111.53l-2.62.02Z"/>
  </g>
  <rect class="cls-4" x="384.46" y="351.51" width="348.88" height="101.16"/>
  <g class="cls-6">
    <path class="cls-8" d="M540,1048c-280.42,0-508.55-227.89-508.55-508S259.58,32,540,32s508.56,227.89,508.56,508-228.14,508-508.56,508ZM540,94.95c-245.71,0-445.6,199.65-445.6,445.05s199.9,445.05,445.6,445.05,445.61-199.65,445.61-445.05S785.7,94.95,540,94.95Z"/>
    <path class="cls-3" d="M322.92,492.87c5.06,0,9.15-4.1,9.15-9.15s-4.09-9.16-9.15-9.16-9.15,4.1-9.15,9.16,4.09,9.15,9.15,9.15"/>
    <path class="cls-3" d="M322.92,526.17c5.06,0,9.15-4.1,9.15-9.15s-4.09-9.15-9.15-9.15-9.15,4.09-9.15,9.15,4.09,9.15,9.15,9.15"/>
    <path class="cls-3" d="M323.8,682.12c5.06,0,9.15-4.1,9.15-9.15s-4.09-9.15-9.15-9.15-9.15,4.09-9.15,9.15,4.09,9.15,9.15,9.15"/>
    <path class="cls-3" d="M791.5,682.12c5.06,0,9.15-4.1,9.15-9.15s-4.09-9.15-9.15-9.15-9.15,4.09-9.15,9.15,4.09,9.15,9.15,9.15"/>
    <path class="cls-3" d="M791.5,526.17c5.06,0,9.15-4.1,9.15-9.15s-4.09-9.15-9.15-9.15-9.15,4.09-9.15,9.15,4.09,9.15,9.15,9.15"/>
    <path class="cls-3" d="M791.5,492.87c5.06,0,9.15-4.1,9.15-9.15s-4.09-9.15-9.15-9.15-9.15,4.09-9.15,9.15,4.09,9.15,9.15,9.15"/>
  </g>
</svg>