<?xml version="1.0" encoding="UTF-8"?>
<svg id="Calque_1" data-name="Calque 1" xmlns="http://www.w3.org/2000/svg" xmlns:xlink="http://www.w3.org/1999/xlink" viewBox="0 0 1080 1080">
  <defs>
    <style>
      .cls-1 {
        fill: none;
      }

      .cls-2 {
        fill: #0074e8;
      }

      .cls-3 {
        fill: #010101;
      }

      .cls-4 {
        fill: #7ebfff;
      }

      .cls-5 {
        clip-path: url(#clippath-1);
      }

      .cls-6 {
        clip-path: url(#clippath-3);
      }

      .cls-7 {
        clip-path: url(#clippath-2);
      }

      .cls-8 {
        fill: #fff;
      }

      .cls-9 {
        fill: #062442;
      }

      .cls-10 {
        clip-path: url(#clippath);
      }
    </style>
    <clipPath id="clippath">
      <rect class="cls-1" x="28.44" y="29" width="1023.13" height="1022"/>
    </clipPath>
    <clipPath id="clippath-1">
      <rect class="cls-1" x="28.44" y="29" width="1023.13" height="1022"/>
    </clipPath>
    <clipPath id="clippath-2">
      <rect class="cls-1" x="28.44" y="29" width="1023.13" height="1022"/>
    </clipPath>
    <clipPath id="clippath-3">
      <rect class="cls-1" x="28.44" y="29" width="1023.13" height="1022"/>
    </clipPath>
  </defs>
  <g class="cls-10">
    <path class="cls-9" d="M540,1051.01c-282.08,0-511.56-229.23-511.56-511S257.92,29.01,540,29.01s511.56,229.23,511.56,511-229.49,511-511.56,511ZM540,92.34c-247.16,0-448.23,200.83-448.23,447.68s201.08,447.68,448.23,447.68,448.24-200.83,448.24-447.68S787.15,92.34,540,92.34Z"/>
  </g>
  <rect class="cls-2" x="377.08" y="437.22" width="321.12" height="164.39"/>
  <g class="cls-5">
    <path class="cls-8" d="M536.15,689.05c28.92,0,52.37-23.97,52.37-53.51s-23.45-53.52-52.37-53.52-52.37,23.97-52.37,53.52,23.45,53.51,52.37,53.51"/>
  </g>
  <rect class="cls-4" x="532.96" y="231.11" width="10.55" height="352.26" transform="translate(130.05 944.75) rotate(-89.9)"/>
  <g class="cls-7">
    <path class="cls-4" d="M536.15,666.7c14.36,0,26-12.53,26-27.98s-11.64-27.99-26-27.99-26,12.54-26,27.99,11.64,27.98,26,27.98"/>
    <path class="cls-3" d="M537.14,681.18c-22.3,0-40.44-18.84-40.44-41.99s18.14-42.01,40.44-42.01,40.44,18.85,40.44,42.01-18.14,41.99-40.44,41.99ZM537.14,599.81c-20.85,0-37.8,17.67-37.8,39.38s16.96,39.36,37.8,39.36,37.8-17.66,37.8-39.36-16.96-39.38-37.8-39.38Z"/>
  </g>
  <rect class="cls-8" x="403.86" y="467.87" width="220.48" height="5.28"/>
  <rect class="cls-8" x="401.52" y="531.29" width="27.05" height="5.28"/>
  <rect class="cls-8" x="401.04" y="550.16" width="27.05" height="5.28"/>
  <rect class="cls-8" x="446.77" y="550.16" width="27.05" height="5.28"/>
  <rect class="cls-8" x="446.77" y="569.81" width="27.05" height="5.28"/>
  <rect class="cls-8" x="401.04" y="569.81" width="27.05" height="5.28"/>
  <g class="cls-6">
    <path class="cls-3" d="M640.6,709.42c-124.47,0-309.53-3.68-320.6-3.91-.46-.02-38.87-1.87-40.34-38.98l-19.53-259.28c-.05-.73-.96-17.02,10.97-29.1,8.93-9.04,22.38-13.19,40.07-12.23,48.82,2.57,456.61-1.26,460.73-1.3.57.02,37.85,1.92,37.85,42.33,0,36.81-17.51,246.99-18.25,255.92h0s.89,36.92-42.37,43.9c-12.16,1.96-54.67,2.65-108.52,2.65ZM306.4,373.72c-13.09,0-23.04,3.33-29.6,9.94-9.44,9.5-8.77,22.92-8.76,23.06l19.53,259.45c1.14,29.8,31.38,31.39,32.67,31.45,3.8.07,388.06,7.74,427.63,1.36,36.26-5.85,35.77-35.04,35.73-36.28.2-2.65,18.24-219.25,18.24-255.73,0-32.7-28.84-34.36-30.06-34.42-3.92.04-411.99,3.85-461.01,1.3-1.49-.08-2.94-.12-4.36-.12Z"/>
    <path class="cls-3" d="M347.72,659.37c-.26,0-6.07-.05-9.18-3.94-1.8-2.26-2.3-5.26-1.49-8.93l.51-14.68c-.2-.91-.79-4.39,1.36-7.21,1.79-2.36,4.93-3.55,9.31-3.55h41.52c-.12-.01,4.14-.96,7.39,1.89,2.76,2.42,3.85,6.71,3.26,12.76l-.51,13.97c.12.74.41,3.39-1.42,5.68-1.84,2.31-5.12,3.49-9.77,3.49l-40.99.52ZM391.35,623.55c-.77,0-1.29.11-1.31.12l-41.81.03c-3.5,0-5.93.84-7.19,2.49-1.65,2.15-.89,5.12-.88,5.15l.05.19-.55,15.43c-.66,2.9-.35,5.18.94,6.81,2.3,2.9,7.06,2.96,7.11,2.96l40.98-.52c3.74,0,6.4-.85,7.69-2.46,1.32-1.64.92-3.6.9-3.68l-.04-.16.52-14.37c.51-5.15-.3-8.78-2.34-10.58-1.32-1.17-2.95-1.41-4.07-1.41Z"/>
    <path class="cls-3" d="M423.47,657.75c-.26,0-6.08-.05-9.18-3.95-1.8-2.25-2.3-5.25-1.49-8.92l.51-14.69c-.2-.91-.79-4.39,1.36-7.21,1.79-2.36,4.92-3.55,9.31-3.55h41.52c-.11-.01,4.15-.96,7.39,1.89,2.76,2.42,3.85,6.71,3.26,12.76l-.51,13.97c.12.74.41,3.39-1.42,5.68-1.84,2.31-5.12,3.49-9.77,3.49l-40.98.52ZM467.1,621.93c-.77,0-1.29.11-1.31.12l-41.81.03c-3.5,0-5.93.84-7.2,2.49-1.64,2.15-.88,5.12-.87,5.15l.05.19-.55,15.44c-.66,2.89-.35,5.18.94,6.8,2.31,2.91,7.07,2.96,7.12,2.96l40.98-.52c3.74,0,6.4-.85,7.69-2.46,1.32-1.64.92-3.6.9-3.68l-.04-.16.52-14.37c.51-5.15-.3-8.78-2.34-10.58-1.32-1.17-2.95-1.41-4.07-1.41Z"/>
    <path class="cls-3" d="M609.17,659.55c-.26,0-6.07-.05-9.18-3.94-1.8-2.26-2.3-5.26-1.49-8.92l.51-14.7c-.2-.91-.79-4.38,1.36-7.2,1.79-2.36,4.93-3.55,9.31-3.55h41.52c-.11-.02,4.14-.95,7.39,1.89,2.76,2.42,3.85,6.71,3.26,12.75l-.51,13.98c.12.74.41,3.38-1.42,5.67-1.83,2.31-5.12,3.49-9.77,3.49l-40.99.53ZM652.8,623.73c-.77,0-1.3.11-1.31.12l-41.81.03c-3.5,0-5.93.84-7.2,2.49-1.64,2.14-.88,5.11-.87,5.14l.05.19-.55,15.45c-.66,2.89-.35,5.18.94,6.8,2.31,2.9,7.07,2.96,7.12,2.96l40.98-.53c3.74,0,6.4-.85,7.69-2.46,1.32-1.63.91-3.59.89-3.67l-.04-.16.52-14.38c.51-5.14-.3-8.77-2.34-10.57-1.31-1.17-2.95-1.41-4.07-1.41Z"/>
    <path class="cls-3" d="M685.16,660.81c-.26,0-6.08-.05-9.18-3.94-1.79-2.25-2.29-5.25-1.48-8.91l.51-14.7c-.2-.91-.79-4.39,1.36-7.21,1.79-2.36,4.92-3.55,9.31-3.55h41.52c-.12-.02,4.14-.96,7.39,1.9,2.76,2.42,3.85,6.71,3.26,12.75l-.51,13.98c.12.74.41,3.38-1.42,5.67-1.83,2.31-5.12,3.49-9.77,3.49l-40.99.52ZM728.79,624.99c-.77,0-1.29.11-1.31.12l-41.81.03c-3.5,0-5.93.84-7.2,2.49-1.64,2.15-.88,5.12-.87,5.15l.05.19-.55,15.45c-.66,2.89-.35,5.17.94,6.79,2.3,2.9,7.07,2.96,7.12,2.96l40.98-.52c3.74,0,6.4-.85,7.69-2.46,1.32-1.63.91-3.59.89-3.67l-.04-.16.52-14.38c.51-5.14-.3-8.77-2.34-10.58-1.32-1.16-2.95-1.41-4.07-1.41Z"/>
  </g>
</svg>