<?xml version="1.0" encoding="UTF-8"?>
<svg id="Calque_1" xmlns="http://www.w3.org/2000/svg" xmlns:xlink="http://www.w3.org/1999/xlink" version="1.1" viewBox="0 0 1080 1080">
  <!-- Generator: Adobe Illustrator 29.4.0, SVG Export Plug-In . SVG Version: 2.1.0 Build 152)  -->
  <defs>
    <style>
      .st0, .st1, .st2 {
        fill: none;
      }

      .st3 {
        fill: #0074e8;
      }

      .st4 {
        fill: #010101;
      }

      .st5 {
        fill: #7ebfff;
      }

      .st6 {
        clip-path: url(#clippath-1);
      }

      .st7 {
        fill: #fff;
      }

      .st1 {
        stroke: #010101;
        stroke-width: 2px;
      }

      .st1, .st2 {
        stroke-miterlimit: 10;
      }

      .st8 {
        clip-path: url(#clippath);
      }

      .st2 {
        stroke: #001a2f;
        stroke-width: 6px;
      }
    </style>
    <clipPath id="clippath">
      <rect class="st0" x="28.44" y="29" width="1023.13" height="1022"/>
    </clipPath>
    <clipPath id="clippath-1">
      <rect class="st0" x="34.97" y="-59.63" width="1023.13" height="1022"/>
    </clipPath>
  </defs>
  <g class="st8">
    <path class="st3" d="M540,1051.01c-282.08,0-511.56-229.23-511.56-511S257.92,29.01,540,29.01s511.56,229.23,511.56,511-229.49,511-511.56,511h0ZM540,92.34c-247.16,0-448.23,200.83-448.23,447.68s201.08,447.68,448.23,447.68,448.24-200.83,448.24-447.68S787.15,92.34,540,92.34Z"/>
  </g>
  <rect class="st3" x="339.91" y="384.01" width="390.64" height="334.78" rx="8.81" ry="8.81"/>
  <g class="st6">
    <path class="st7" d="M320.63,714.24c28.92,0,52.37-23.97,52.37-53.51s-23.45-53.52-52.37-53.52-52.37,23.97-52.37,53.52,23.45,53.51,52.37,53.51"/>
  </g>
  <rect class="st5" x="530.15" y="187.25" width="10.55" height="352.26" transform="translate(171.12 898.17) rotate(-89.9)"/>
  <rect class="st7" x="427.18" y="406.29" width="220.48" height="5.28"/>
  <rect class="st7" x="394.06" y="657.24" width="27.05" height="5.28"/>
  <rect class="st7" x="451.13" y="658.07" width="27.05" height="5.28"/>
  <rect class="st7" x="588.59" y="659.32" width="27.05" height="5.28"/>
  <rect class="st7" x="653.48" y="659.4" width="27.05" height="5.28"/>
  <rect class="st7" x="515.54" y="658.16" width="27.05" height="5.28"/>
  <rect class="st2" x="242.96" y="341.75" width="591.56" height="407.3" rx="12" ry="12"/>
  <g>
    <path class="st5" d="M312.69,689.43c14.36,0,26-12.53,26-27.98s-11.64-27.99-26-27.99-26,12.54-26,27.99,11.64,27.98,26,27.98"/>
    <path class="st4" d="M313.68,703.91c-22.3,0-40.44-18.84-40.44-41.99s18.14-42.01,40.44-42.01,40.44,18.85,40.44,42.01-18.14,41.99-40.44,41.99ZM313.68,622.54c-20.85,0-37.8,17.67-37.8,39.38s16.96,39.36,37.8,39.36,37.8-17.66,37.8-39.36-16.96-39.38-37.8-39.38Z"/>
  </g>
  <rect class="st1" x="742.44" y="454.35" width="59.15" height="35.41" rx="8.97" ry="8.97"/>
  <path class="st7" d="M754.94,713.98c28.92,0,52.37-23.97,52.37-53.51s-23.45-53.52-52.37-53.52-52.37,23.97-52.37,53.52,23.45,53.51,52.37,53.51"/>
  <rect class="st1" x="742.81" y="498.5" width="59.15" height="35.41" rx="8.97" ry="8.97"/>
  <rect class="st1" x="742.81" y="544.29" width="59.15" height="35.41" rx="8.97" ry="8.97"/>
  <rect class="st1" x="264.28" y="455.98" width="59.15" height="35.41" rx="8.97" ry="8.97"/>
  <rect class="st1" x="264.65" y="500.13" width="59.15" height="35.41" rx="8.97" ry="8.97"/>
  <rect class="st1" x="264.65" y="545.92" width="59.15" height="35.41" rx="8.97" ry="8.97"/>
  <g>
    <path class="st5" d="M758.61,686.12c14.36,0,26-12.53,26-27.98s-11.64-27.99-26-27.99-26,12.54-26,27.99,11.64,27.98,26,27.98"/>
    <path class="st4" d="M759.6,700.6c-22.3,0-40.44-18.84-40.44-41.99s18.14-42.01,40.44-42.01,40.44,18.85,40.44,42.01-18.14,41.99-40.44,41.99ZM759.6,619.23c-20.85,0-37.8,17.67-37.8,39.38s16.96,39.36,37.8,39.36,37.8-17.66,37.8-39.36-16.96-39.38-37.8-39.38Z"/>
  </g>
</svg>