<?xml version="1.0" encoding="UTF-8"?>
<svg id="Calque_1" xmlns="http://www.w3.org/2000/svg" xmlns:xlink="http://www.w3.org/1999/xlink" version="1.1" viewBox="0 0 1080 1080">
  <!-- Generator: Adobe Illustrator 29.4.0, SVG Export Plug-In . SVG Version: 2.1.0 Build 152)  -->
  <defs>
    <style>
      .st0, .st1, .st2, .st3 {
        fill: none;
      }

      .st4 {
        fill: #0074e8;
      }

      .st1 {
        stroke-width: 3px;
      }

      .st1, .st2, .st3 {
        stroke: #062442;
      }

      .st1, .st3 {
        stroke-miterlimit: 10;
      }

      .st2 {
        stroke-miterlimit: 10;
        stroke-width: 1px;
      }

      .st5 {
        fill: #062442;
      }

      .st6 {
        fill: #fcfcfc;
      }

      .st7 {
        clip-path: url(#clippath);
      }
    </style>
    <clipPath id="clippath">
      <rect class="st0" x="31.44" y="32" width="1017.12" height="1016"/>
    </clipPath>
  </defs>
  <g class="st7">
    <path class="st4" d="M540,1048c-280.42,0-508.55-227.89-508.55-508S259.58,32.01,540,32.01s508.56,227.88,508.56,507.99-228.14,508-508.56,508h0ZM540,94.96c-245.71,0-445.6,199.64-445.6,445.04s199.9,445.05,445.6,445.05,445.61-199.65,445.61-445.05S785.7,94.96,540,94.96Z"/>
  </g>
  <path class="st1" d="M525.07,625.55c-.45.54,30.47,10.02,54.26,15.87,23.78,5.85,33.53-7.02,33.53-7.02,54.59-41.72,215.61-251.48,215.61-251.48,18.33-54.98-13.26-63.55-13.26-63.55-61.6-30.8-126.33-42.11-129.06-42.5s-7.41,3.12-7.41,3.12l-11.7-3.12c-14.04-8.58-30.02,1.56-30.02,1.56-49.91,38.21-197.29,207.42-210.54,219.9-13.26,12.48-14.82,28.85-14.82,28.85-.78,28.85,13.65,47.96,15.6,50.3,1.95,2.34,37.43,23.39,37.43,23.39"/>
  <path class="st5" d="M662.15,544.69l.9,2.7,165.57-193.25s3.6,12.76-4.49,25.35c0,0-141.84,174.02-159.46,188.94l1.26,3.6-45.48,49.26,19.77-24.45s6.83-11.33,1.98-30.38l19.95-21.75v-.02h0Z"/>
  <path class="st5" d="M576.77,516.3c0,11.63-12.51,21.06-27.94,21.06-13.36,0-24.53-7.07-27.29-16.51-.43-1.46-.65-2.98-.65-4.54,0-11.63,12.51-21.06,27.94-21.06s27.94,9.43,27.94,21.06h0Z"/>
  <path class="st3" d="M522.9,530.02l-.66-9.48,38.33-21.34s10.93,1.71,14.36,12.12-1.58,17.39-1.58,17.39c0,0-1.45,4.48-11.06,10.67-9.62,6.19-31.74,6.06-39.38-9.35h-.01Z"/>
  <path class="st1" d="M539.72,604.39h0s35.17,9.97,37.71,10.18,19.28,2.97,30.51-11.02c11.23-13.98,37.21-38.19,37.21-38.19,0,0,2.78,19.44-4.93,31.46s-28.26,32.79-28.26,32.79c0,0-9.74,9.53-33.05,3.6l-50.63-11.23-.21-5.3s4.45-.21,7.63-5.72"/>
  <path class="st1" d="M469.05,595.84l-4.66-15.91s-.19-2.91,1.55-1.94,16.11,6.4,16.11,6.4l-5.63,3.49-7.37,7.96h0Z"/>
  <path class="st1" d="M539.72,604.4s-55.93-18.9-57.67-20.01l-5.63,3.49-11.74,12.98-170.3,189.62h.01s-13.58,15.15,2.52,23.49,37.07,16.88,37.07,16.88c0,0,8.15,3.49,13.78-2.13,5.63-5.63,177.3-203.17,177.3-203.17l3.22-3.56-.21-5.3s4.13-1.38,6.25-3.85,5.4-8.44,5.4-8.44"/>
  <path class="st1" d="M340.66,823.51l170.12-198.94,13.86-15.14s3.84,4.14,3.65,12.56"/>
  <path class="st1" d="M470.66,594.75l4.28-2.2s2.08-1.04,6.72.81,41.31,13.54,42.21,15.18"/>
  <path class="st1" d="M635.5,322.79s18.21-13.18,44.18-5.81c11.89,3.37,20.62,7.23,26.58,10.43,12.31,6.59,17.03,22.07,10.11,34.19-.21.37-.43.73-.65,1.11-10.85,17.83-77.12,99.59-101.92,114.32-21.36,12.68-36.39,12.72-40.16,12.48-.58-.04-1.16-.06-1.75-.04-3.91.11-21.21-.34-42.13-15.4-9.04-6.51-12.67-18.32-8.79-28.77,1.77-4.78,4.73-10.18,9.51-15.94,9.37-11.29,22.72-29.37,42.44-50.5.35-.37.7-.75,1.05-1.12,15.99-17.03,36.09-35.99,61.53-54.94h0Z"/>
  <path class="st5" d="M613.6,387.59l18.62,7.47c3.41,1.37,5.06,5.24,3.7,8.65h0c-1.37,3.41-5.24,5.06-8.65,3.7l-18.62-7.47c-3.41-1.37-5.06-5.24-3.7-8.65h0c1.37-3.41,5.24-5.06,8.65-3.7Z"/>
  <rect class="st5" x="587.58" y="367.74" width="2.32" height="33.3" transform="translate(16.1 792.39) rotate(-68.61)"/>
  <rect class="st2" x="610.85" y="379.08" width="19.82" height="36.49" rx="6.65" ry="6.65" transform="translate(25.46 831.87) rotate(-68.75)"/>
  <rect class="st5" x="653.59" y="393.46" width="2.32" height="36.97" transform="translate(32.38 871.35) rotate(-68.61)"/>
  <path class="st4" d="M586.74,414.59l23.39,10.93c1.22.57,1.74,2.02,1.17,3.22l-8.97,19.21c-.57,1.22-2.02,1.74-3.22,1.17l-1.55-.72-21.85-10.21c-1.22-.57-1.74-2.02-1.17-3.22l8.97-19.21c.57-1.22,2.02-1.74,3.22-1.17h0Z"/>
  <path class="st4" d="M598.03,447.57l-4.23,8.23s-4.63,6.27-12.09,2.7c-7.46-3.56-7.36-5.61-7.72-11.96l4.21-9.17,3.15,1.86-3.51,7.18s-.8,5.19,2.48,7.27,7.33,3.35,10.41.07l4.04-8.48,3.26,2.29h0Z"/>
  <path class="st5" d="M607.75,487.57"/>
  <path class="st4" d="M657.18,336.58l22.06,9.46c1.14.49,1.66,1.8,1.15,2.92l-8.04,17.8c-.51,1.12-1.85,1.64-2.99,1.15l-1.45-.62-20.61-8.83c-1.14-.49-1.66-1.8-1.15-2.92l8.04-17.8c.51-1.12,1.85-1.64,2.99-1.15h0Z"/>
  <path class="st4" d="M668.08,366.2l-5.4,12.43s-4.08,6.19-11.44,3.03c0,0-8.59-2.2-7.26-10.97l2.34-5.66,3.17,1.36-2.24,4.79s-1.41,5.5,6.18,7.85c0,0,3.79.78,6.25-2.3l5.51-11.89,2.88,1.38h0v-.02Z"/>
  <ellipse class="st6" cx="592.64" cy="434.06" rx="3.27" ry="3.28" transform="translate(-51.46 787.28) rotate(-64.96)"/>
  <path class="st6" d="M592.96,433.52h0c-.8-.37-1.15-1.34-.78-2.14l1.71-3.66c.37-.81,1.34-1.16,2.14-.78h0c.8.37,1.15,1.34.78,2.14l-1.71,3.66c-.37.81-1.34,1.16-2.14.78Z"/>
  <path class="st6" d="M658.98,352.51c.69-1.52,2.5-2.21,4.05-1.55s2.25,2.43,1.56,3.95-2.5,2.21-4.05,1.55-2.25-2.43-1.56-3.95Z"/>
  <path class="st6" d="M661.32,351.27l1.53-3.4c.34-.75,1.23-1.09,1.99-.76h0c.76.33,1.1,1.2.77,1.94l-1.53,3.4c-.34.75-1.23,1.09-1.99.76h0c-.76-.33-1.1-1.2-.77-1.94Z"/>
  <ellipse class="st1" cx="656.07" cy="281.2" rx="11.3" ry="5.13"/>
</svg>