<?xml version="1.0" encoding="UTF-8"?>
<svg id="Calque_1" xmlns="http://www.w3.org/2000/svg" xmlns:xlink="http://www.w3.org/1999/xlink" version="1.1" viewBox="0 0 1080 1080">
  <!-- Generator: Adobe Illustrator 29.4.0, SVG Export Plug-In . SVG Version: 2.1.0 Build 152)  -->
  <defs>
    <style>
      .st0, .st1, .st2 {
        fill: none;
      }

      .st3 {
        fill: #0074e8;
      }

      .st1 {
        stroke: #fff;
        stroke-width: 10px;
      }

      .st1, .st2 {
        stroke-miterlimit: 10;
      }

      .st4 {
        fill: #7ebfff;
      }

      .st5 {
        fill: #fff;
      }

      .st2 {
        stroke: #010101;
        stroke-width: 4px;
      }

      .st6 {
        clip-path: url(#clippath);
      }
    </style>
    <clipPath id="clippath">
      <rect class="st0" x="31.44" y="32" width="1017.12" height="1016"/>
    </clipPath>
  </defs>
  <g class="st6">
    <path class="st3" d="M540,1047.99c-280.42,0-508.55-227.89-508.55-508S259.58,32,540,32s508.56,227.88,508.56,507.99-228.14,508-508.56,508h0ZM540,94.95c-245.71,0-445.6,199.64-445.6,445.04s199.9,445.05,445.6,445.05,445.61-199.65,445.61-445.05S785.7,94.95,540,94.95Z"/>
  </g>
  <path class="st5" d="M534.7,566.42c19.34.07,35.08-15.57,35.15-34.89s-15.57-35.08-34.9-35.15c-19.34-.07-35.08,15.57-35.15,34.9-.07,19.34,15.57,35.07,34.9,35.13h0Z"/>
  <path class="st2" d="M250.8,391.27s62.2-133.29,206.91-157.41"/>
  <polyline class="st2" points="441.71 208.75 486.15 227.72 458.3 259.72"/>
  <polyline class="st2" points="282.78 397.99 237.91 415.92 235.05 373.59"/>
  <circle class="st4" cx="539.44" cy="563.98" r="291.24"/>
  <circle class="st5" cx="540.02" cy="563.4" r="58.13"/>
  <path class="st5" d="M315.4,619.61s162.27-6.69,176.79,171.71c0,0-143.53-27.34-176.79-171.71h0Z"/>
  <path class="st5" d="M585.32,790.06s143.72-26.42,178-171.05c0,0-162.22-7.86-178,171.05"/>
  <path class="st5" d="M368.22,409.88s159.03-174.65,333.69-7.91c12.2,11.64,17.22,29.17,12.47,45.35-5.17,17.57-21.14,32.04-66.28,11.32-1.89-.87-3.83-1.59-5.82-2.19-18.18-5.55-103.65-28.58-196.94-3.24-2.44.66-4.82,1.55-7.11,2.63-10.18,4.78-43.19,18.63-60.09,5.85-20.15-15.22-19.43-41.1-9.92-51.8h0Z"/>
  <ellipse class="st1" cx="538.12" cy="568.41" rx="258.1" ry="262.1"/>
</svg>