<svg xmlns="http://www.w3.org/2000/svg" id="Calque_1" data-name="Calque 1" viewBox="0 0 1080 1080">
  <defs>
    <clipPath id="clippath">
      <path fill="none" d="M31 31.56h1018v1016.88H31z" />
    </clipPath>
    <style>
      .cls-3 {
        fill: #010101;
      }
      .cls-5 {
        fill: #fff;
      }
    </style>
  </defs>
  <g clip-path="url(#clippath)">
    <path
      fill="#0074e8"
      d="M540 1048.44c-280.66 0-508.99-228.08-508.99-508.44S259.34 31.56 540 31.56 1049 259.64 1049 540s-228.34 508.44-509 508.44Zm0-953.87C294.09 94.57 94.01 294.39 94.01 540S294.08 985.43 540 985.43 986 785.61 986 540 785.92 94.57 540 94.57Z"
    />
    <path
      fill="#0074e8"
      d="M534.92 685.01c78.51 0 142.14-63.54 142.14-141.94s-63.64-141.92-142.14-141.92-142.14 63.54-142.14 141.92 63.64 141.94 142.14 141.94"
    />
    <path
      d="M528.41 784.52c-133.13 0-241.44-108.31-241.44-241.44s108.31-241.44 241.44-241.44 241.44 108.31 241.44 241.44-108.31 241.44-241.44 241.44Zm0-472.38c-127.35 0-230.94 103.59-230.94 230.94s103.59 230.94 230.94 230.94 230.94-103.6 230.94-230.94-103.59-230.94-230.94-230.94Z"
      class="cls-3"
    />
    <path
      d="M534.92 591.76c26.88 0 48.67-21.79 48.67-48.68s-21.79-48.67-48.67-48.67-48.68 21.8-48.68 48.67 21.8 48.68 48.68 48.68"
      class="cls-5"
    />
    <path
      d="M601.37 494.4c9.82 0 17.77-8.64 17.77-19.32s-7.95-19.31-17.77-19.31-17.77 8.65-17.77 19.31 7.95 19.32 17.77 19.32"
      class="cls-5"
    />
    <path
      d="M601.37 630.4c9.82 0 17.77-8.65 17.77-19.32s-7.95-19.32-17.77-19.32-17.77 8.65-17.77 19.32 7.95 19.32 17.77 19.32"
      class="cls-5"
    />
    <path
      d="M468.47 630.4c9.82 0 17.77-8.65 17.77-19.32s-7.95-19.32-17.77-19.32-17.77 8.65-17.77 19.32 7.95 19.32 17.77 19.32"
      class="cls-5"
    />
    <path
      d="M468.47 494.4c9.82 0 17.77-8.64 17.77-19.32s-7.95-19.31-17.77-19.31-17.77 8.65-17.77 19.31 7.95 19.32 17.77 19.32"
      class="cls-5"
    />
    <path
      d="M463.81 379.72c-2.98 0-5.15-1.19-6.62-2.51-1.58-1.41-3.01-3.74-3.34-5.21-.32-.87-2.09-6.2.11-10.71 1.25-2.55 3.51-4.34 6.71-5.29 10.27-3.07 42.88-10.01 44.26-10.31.32-.07 6.86-1.13 11.1 2.05 1.96 1.48 3.11 3.59 3.4 6.28.38 3.45.57 5.29.41 6.28.16.93.16 2.13-.43 3.35-1.05 2.12-3.49 3.52-7.26 4.15-1.84.3-4 .59-6.41.9-9.88 1.28-23.4 3.05-34.01 8.72-3.12 1.67-5.73 2.3-7.92 2.3Zm-7.47-8.46s1.13 3.73 4.49 5.22c2.58 1.13 5.82.68 9.67-1.38 11.01-5.9 24.82-7.7 34.9-9.01 2.38-.31 4.51-.59 6.32-.89 2.84-.47 4.68-1.4 5.32-2.69.33-.66.3-1.35.19-1.86-.21-.39-.31-.83-.38-1.13l.41-.16c-.01-.62-.1-2-.44-5.05-.23-1.97-.99-3.43-2.37-4.47-3.34-2.5-8.97-1.57-9.02-1.58-.29.06-33.85 7.21-44 10.24-2.47.74-4.18 2.06-5.11 3.92-1.54 3.14-.52 7.08-.12 8.33l.15.46-.21.08.19-.04Z"
      class="cls-3"
    />
    <path
      d="M349.46 535.75c-.33 0-.64-.02-.9-.07-.9-.03-6.51-.39-9.87-4.13-1.92-2.12-2.73-4.89-2.42-8.22.97-10.67 6.7-43.53 6.94-44.93.06-.32 1.49-6.78 6.02-9.51 2.08-1.26 4.45-1.54 7.1-.79 3.4.96 5.17 1.47 6 1.98.91.21 2.01.66 2.9 1.66 1.58 1.76 1.96 4.55 1.13 8.29-.4 1.81-.94 3.93-1.55 6.27-2.48 9.65-5.89 22.86-4.57 34.83.91 8.35-2.54 11.9-5.61 13.41-1.55.76-3.65 1.21-5.17 1.21Zm-1.18-2.71.5.03v.2l.03-.18s3.86.37 6.49-2.19c2.02-1.96 2.8-5.15 2.33-9.49-1.37-12.44 2.1-25.92 4.64-35.77.59-2.31 1.13-4.4 1.53-6.18.63-2.81.45-4.87-.5-5.96-.49-.55-1.14-.79-1.66-.89-.38.03-.88-.03-1.19-.07v-.44c-.57-.22-1.88-.65-4.83-1.48-1.93-.55-3.56-.38-5.02.51-3.55 2.13-4.79 7.71-4.8 7.76-.05.29-5.94 34.11-6.91 44.66-.23 2.57.36 4.67 1.75 6.22 2.33 2.6 6.32 3.14 7.65 3.25Z"
      class="cls-3"
    />
    <path
      d="M417.89 702.01c-2.31 0-4.55-.86-6.72-2.57-8.42-6.62-32.82-29.32-33.85-30.28-.24-.23-4.85-4.93-4.68-10.22.07-2.47 1.16-4.63 3.22-6.43 2.64-2.33 4.04-3.54 4.94-3.97.68-.67 1.66-1.35 2.99-1.56 2.32-.35 4.88.84 7.55 3.57 1.33 1.35 2.84 2.99 4.52 4.82 6.7 7.31 15.86 17.31 26.56 22.68 7.49 3.76 8.58 8.6 8.18 12-.25 2.04-1.32 4.54-2.32 5.7-.34.5-3.78 5.33-8.94 6.14-.49.08-.97.12-1.47.12ZM381.5 651.2c-.5.37-1.58 1.24-3.9 3.28-1.51 1.33-2.28 2.81-2.34 4.54-.13 4.15 3.85 8.22 3.89 8.26.22.19 25.32 23.55 33.65 30.1 2.03 1.59 4.08 2.25 6.14 1.92 3.44-.53 6.07-3.57 6.92-4.66l.33-.45.11.09-.09-.09s2.44-3.1 1.71-6.72c-.54-2.75-2.79-5.14-6.67-7.08-11.12-5.59-20.48-15.8-27.32-23.26-1.65-1.8-3.14-3.43-4.45-4.76-2.01-2.05-3.74-3.04-5.26-2.81-.74.11-1.29.53-1.66.92-.19.38-.49.72-.7.95l-.37-.25Zm46.78 44.58Z"
      class="cls-3"
    />
    <path
      d="M562.18 744.9c-2.31 0-5.38-.4-7.77-2.13-1.99-1.44-3.17-3.53-3.52-6.22-.45-3.47-.68-5.3-.52-6.3-.17-.93-.19-2.13.38-3.36 1-2.14 3.43-3.57 7.19-4.26 1.84-.34 4.03-.66 6.45-1.02 9.83-1.46 23.31-3.46 33.78-9.3 7.31-4.1 11.95-2.29 14.54-.05 1.6 1.38 3.09 3.7 3.45 5.17.34.88 2.18 6.17.07 10.71-1.21 2.58-3.44 4.4-6.62 5.42-10.21 3.23-42.7 10.74-44.08 11.06-.14.03-1.5.28-3.34.28Zm-9.23-13.74c.03.62.14 2 .54 5.06.26 1.97 1.06 3.41 2.44 4.42 3.38 2.46 9 1.43 9.04 1.41.29-.07 33.72-7.8 43.82-10.99 2.46-.78 4.15-2.13 5.04-4.02 1.52-3.22.37-7.2-.03-8.39l-.15-.4.25-.09-.24.05s-1.19-3.71-4.58-5.14c-2.6-1.1-5.84-.57-9.64 1.54-10.88 6.09-24.63 8.12-34.66 9.61-2.4.35-4.55.68-6.37 1.01-2.83.52-4.66 1.48-5.27 2.77-.33.67-.29 1.37-.17 1.89.22.38.33.81.41 1.11l-.42.17Z"
      class="cls-3"
    />
    <path
      d="M716.3 625.78c-.89 0-1.82-.13-2.78-.41-3.35-.94-5.13-1.46-5.98-1.99-.92-.19-2.03-.65-2.92-1.65-1.58-1.76-1.97-4.55-1.14-8.29.4-1.82.95-3.94 1.56-6.3 2.48-9.64 5.88-22.84 4.56-34.79-.91-8.35 2.54-11.9 5.6-13.41 1.91-.93 4.65-1.39 6.1-1.14.95.04 6.51.42 9.84 4.13 1.92 2.12 2.73 4.89 2.42 8.23-.98 10.67-6.71 43.53-6.95 44.93-.06.32-1.48 6.77-6 9.5-1.33.8-2.77 1.2-4.32 1.2Zm-6.91-4.42c.57.22 1.89.65 4.85 1.49 1.88.52 3.54.36 5.01-.52 3.54-2.13 4.78-7.7 4.79-7.76.05-.29 5.94-34.11 6.92-44.67.23-2.57-.36-4.67-1.75-6.22-2.37-2.64-6.43-3.16-7.7-3.26l-.44-.03v-.26l-.04.24c-.01-.02-3.87-.36-6.49 2.19-2.02 1.96-2.8 5.15-2.33 9.49 1.37 12.43-2.09 25.9-4.62 35.74-.61 2.32-1.14 4.41-1.54 6.2-.63 2.81-.44 4.88.51 5.96.48.55 1.14.78 1.65.88.43-.05.88.02 1.18.07v.45Z"
      class="cls-3"
    />
    <path
      d="M685.45 439.08c-2.13 0-4.4-1.25-6.76-3.74-1.28-1.35-2.74-3-4.36-4.82-6.58-7.45-15.6-17.64-26.23-23.23-7.41-3.9-8.42-8.75-7.96-12.14.28-2.04 1.4-4.54 2.43-5.68.4-.56 3.91-5.26 9.04-5.98 2.78-.35 5.55.47 8.14 2.59 8.29 6.78 32.28 29.89 33.3 30.87.23.24 4.77 5.01 4.5 10.3-.12 2.46-1.25 4.6-3.33 6.37-2.68 2.28-4.09 3.47-5.01 3.88-.69.66-1.68 1.32-3.03 1.51-.25.04-.49.05-.74.05Zm-40.94-48.11.11.11s-2.49 3.05-1.85 6.67c.5 2.77 2.71 5.19 6.55 7.21 11.05 5.81 20.25 16.22 26.97 23.81 1.6 1.8 3.04 3.43 4.3 4.76 1.98 2.09 3.85 3 5.21 2.9.75-.1 1.31-.52 1.68-.9.22-.38.51-.71.72-.94l.37.26c.51-.36 1.61-1.22 3.95-3.21 1.54-1.3 2.32-2.77 2.41-4.5.22-4.15-3.69-8.29-3.73-8.33-.22-.2-24.9-23.98-33.1-30.69-2-1.64-4.06-2.3-6.11-2.03-3.44.47-6.12 3.46-6.99 4.54l-.34.44-.14-.11Zm-1.92-1.5Z"
      class="cls-3"
    />
    <path
      fill="#7ebfff"
      d="M564.46 295.14v-7.79s-.48-9.87 15.62-4.94c0 0 71.66 15.32 99.7 39.99 0 0 5.71 2.59 0 24.92 0 0 58.15 52.97 68.02 75.81 0 0 27-3.11 28.56 3.11 1.55 6.24 33.74 70.1 31.15 110.08 0 0 1.56 6.75-8.31 6.75h-51.4s-7.79.51-9.35-12.45c-1.55-12.99-16.83-86.19-61.38-122.55-44.55-36.34-69.99-50.36-98.03-55.04 0 0-15.72 1.04-15.72-10.9s1.14-46.99 1.14-46.99"
    />
    <path
      d="M753.87 414.05c-9.96-20.68-64.28-73.9-64.83-74.44l7.34-7.51c2.29 2.24 56.2 55.05 66.94 77.39l-9.46 4.55Z"
      class="cls-3"
    />
  </g>
</svg>
