<svg xmlns="http://www.w3.org/2000/svg" id="Calque_1" data-name="Calque 1" viewBox="0 0 1080 1080">
  <defs>
    <clipPath id="clippath">
      <path d="M43 43.55h994v992.9H43z" class="cls-1" />
    </clipPath>
    <clipPath id="clippath-1">
      <path d="M43 43.55h994v992.9H43z" class="cls-1" />
    </clipPath>
    <clipPath id="clippath-2">
      <path d="M43 43.55h994v992.9H43z" class="cls-1" />
    </clipPath>
    <clipPath id="clippath-3">
      <path d="M43 43.55h994v992.9H43z" class="cls-1" />
    </clipPath>
    <style>
      .cls-1 {
        fill: none;
      }
      .cls-2 {
        fill: #0074e8;
      }
      .cls-7 {
        fill: #fff;
      }
    </style>
  </defs>
  <g clip-path="url(#clippath)">
    <path
      fill="#0074e8"
      d="M540 1036.46c-274.04 0-496.99-222.71-496.99-496.45S265.96 43.56 540 43.56s497 222.71 497 496.45-222.95 496.45-497 496.45Zm0-931.38c-240.11 0-435.47 195.11-435.47 434.93S299.89 974.94 540 974.94s435.48-195.11 435.48-434.93S780.12 105.08 540 105.08Z"
    />
    <path
      d="M253.98 745.73c-7.82 0-18.22-3.42-24.6-16.18-8.65-17.26-47.47-107.55-50.6-114.81-2.4-4.01-15.82-29.49 15.05-51.66 8.03-8.83 130.38-140.38 291.54-151.49 163.4-11.19 261.67 8.73 412.59 156.75 8.3 6.79 21.24 25.74 8.38 46.73l-45.01 103.67c-2.3 10.42-12.17 28.66-34.56 26.25-30.36-3.19-544.75-.11-566.8.03-1.67.43-3.72.72-6 .72Zm298.79-326.48c-21.11 0-43.21.96-66.7 2.58-161.65 11.13-283.75 147.13-284.97 148.5l-.87.79c-25.25 17.85-14 36.35-12.64 38.4l.46.85c.42.97 41.8 97.26 50.5 114.6 6.62 13.23 17.96 10.38 19.25 10.01l1.43-.22c21.92-.14 537.15-3.29 568.64.03 18.64 1.88 23.11-16.54 23.54-18.65l.32-1.02 45.54-104.78c11.71-19.19-5.42-33.78-6.15-34.4-126.69-124.21-215.51-156.7-338.34-156.7Z"
    />
    <path
      d="M385.83 547.28c-9.97 0-18.08-8.12-18.08-18.09s8.11-18.07 18.08-18.07 18.07 8.11 18.07 18.07-8.11 18.09-18.07 18.09Zm0-25.9c-4.32 0-7.83 3.5-7.83 7.82s3.51 7.84 7.83 7.84 7.82-3.51 7.82-7.84-3.5-7.82-7.82-7.82Z"
    />
    <path
      d="M686.22 547.28c-9.96 0-18.07-8.12-18.07-18.09s8.11-18.07 18.07-18.07 18.08 8.11 18.08 18.07-8.11 18.09-18.08 18.09Zm0-25.9c-4.32 0-7.82 3.5-7.82 7.82s3.5 7.84 7.82 7.84 7.83-3.51 7.83-7.84-3.51-7.82-7.83-7.82Z"
    />
    <path
      d="M330.36 727.86c47.96 0 86.83-37.17 86.83-83.02s-38.87-83.01-86.83-83.01-86.82 37.17-86.82 83.01 38.87 83.02 86.82 83.02"
      class="cls-2"
    />
  </g>
  <path d="M289.16 644.85h78.58v17.88h-78.58z" class="cls-7" />
  <path d="M251.14 678.43h163.5v49.42h-163.5z" class="cls-7" />
  <g clip-path="url(#clippath-1)">
    <path
      d="M754.96 727.86c47.96 0 86.83-37.17 86.83-83.02s-38.87-83.01-86.83-83.01-86.83 37.17-86.83 83.01 38.88 83.02 86.83 83.02"
      class="cls-2"
    />
  </g>
  <path d="M713.77 644.85h78.58v17.88h-78.58z" class="cls-7" />
  <path d="M675.75 678.43h163.5v49.42h-163.5z" class="cls-7" />
  <g clip-path="url(#clippath-2)">
    <path
      fill="#7ebfff"
      d="M542.78 714.98c69.78 0 126.35-55.48 126.35-123.92s-56.57-123.93-126.35-123.93-126.35 55.48-126.35 123.93S473 714.98 542.78 714.98"
    />
  </g>
  <path d="M423.8 678.79h237.96v49.07H423.8z" class="cls-7" />
  <g clip-path="url(#clippath-3)">
    <path
      d="M544.94 639.53c5.04 0 9.13-4.01 9.13-8.94s-4.08-8.94-9.13-8.94-9.13 4-9.13 8.94 4.08 8.94 9.13 8.94"
      class="cls-7"
    />
    <path d="M535.82 631.79s-59.32-107.48-40.05-88.22c19.27 19.27 56.02 81.13 56.02 81.13l-15.97 7.1Z" class="cls-7" />
  </g>
  <path d="m456.98 655.89 3.98 5.9 5.67-3.83-3.98-5.9-5.67 3.83z" class="cls-7" />
  <path d="m444.58 630.38 2.32 6.72 6.47-2.23-2.31-6.73-6.48 2.24z" class="cls-7" />
  <path d="m614.14 529.64 4.75 5.29 5.08-4.58-4.75-5.28-5.08 4.57z" class="cls-7" />
  <path d="m592.64 513.05 6.03 3.76 3.63-5.79-6.04-3.77-3.62 5.8z" class="cls-7" />
  <path d="m568.01 503.01 6.85 1.96 2.02-7.02-7.08-1.95-1.79 7.01z" class="cls-7" />
  <path d="m541.14 493.02.25 7.44 6.6.01v-7.45h-6.85z" class="cls-7" />
  <path d="m513.18 498.22 1.6 6.74 7.08-2.2-2.13-6.77-6.55 2.23z" class="cls-7" />
  <path d="m487.05 509.86 3.39 6.34 6.08-3.81-3.28-6.17-6.19 3.64z" class="cls-7" />
  <path d="m465.14 529.21 4.76 5.28 5.08-5.47-4.91-5.48-4.93 5.67z" class="cls-7" />
  <path d="m449.65 553.31 6.2 2.91 2.99-6.45-6.2-2.9-2.99 6.44z" class="cls-7" />
  <path d="m440.54 580.2 6.72 1.31 1.36-6.99-6.72-1.32-1.36 7z" class="cls-7" />
  <path d="m439.4 602.04.37 7.11 6.84-.35-.38-7.12-6.83.36z" class="cls-7" />
  <path d="m623.97 654.6 4.93 4.05 4.26-6.58-5.83-3.04-3.36 5.57z" class="cls-7" />
  <path d="m636.51 630.59 6.54 2.05 1.88-6.43-6.96-2.04-1.46 6.42z" class="cls-7" />
  <path d="M641.63 597.81v7.12l6.85-.01v-7.11h-6.85z" class="cls-7" />
  <path d="m639.0392 575.777 6.7146-1.304 1.3535 6.9697-6.7146 1.304z" class="cls-7" />
  <path d="m628.89 551.19 3.51 6.62 7.1-3.85-2.98-6.68-7.63 3.91z" class="cls-7" />
</svg>
