<svg xmlns="http://www.w3.org/2000/svg" id="Calque_1" data-name="Calque 1" viewBox="0 0 1080 1080">
  <defs>
    <clipPath id="clippath">
      <path fill="none" d="M43 43.55h994v992.9H43z" />
    </clipPath>
    <style>
      .cls-3 {
        fill: #010101;
      }
      .cls-4 {
        fill: #7ebfff;
      }
      .cls-5 {
        fill: #fff;
      }
    </style>
  </defs>
  <g clip-path="url(#clippath)">
    <path
      fill="#0074e8"
      d="M540 1036.45c-274.04 0-497-222.71-497-496.45S265.96 43.55 540 43.55 1036.99 266.26 1036.99 540 814.04 1036.45 540 1036.45Zm0-931.38c-240.12 0-435.48 195.11-435.48 434.93S299.88 974.93 540 974.93 975.47 779.82 975.47 540 780.12 105.07 540 105.07Z"
    />
    <path
      d="m562.92 704.21-.62-.35c-2.55-1.44-255.16-143.57-265.68-148.56-2.93-1.38-4.62-2.88-5.16-4.59-.34-1.07-.21-2.19.39-3.24 1.41-2.45 4.98-3.96 5.38-4.13l172.62-97.4 1.26 2.23-172.76 97.47c-1.01.43-3.44 1.66-4.27 3.09-.32.57-.26.96-.18 1.2.17.55.9 1.68 3.81 3.05 10.44 4.95 248.21 138.73 265.22 148.29l188.11-102.18s1.68-.96 1.81-2.46c.11-1.24-.85-2.72-2.77-4.29L565.82 484.1l1.3-2.21 184.42 108.35c2.81 2.28 4.06 4.47 3.86 6.64-.27 2.87-3.02 4.4-3.14 4.47L562.91 704.21Z"
      class="cls-3"
    />
    <path
      d="M556.4 760.28c-5.38 0-8.48-1.49-8.73-1.61-10.4-6.14-252.98-149.44-256.49-151.97-3.86-2.78-5.01-12.01-5.13-13.05-.05-1.41-1.02-32.2.02-37.34 1.12-5.63 4.66-7.41 4.8-7.49l1.13 2.3-.57-1.15.58 1.15c-.11.05-2.57 1.38-3.43 5.7-.78 3.89-.33 25.67.03 36.65.28 2.42 1.58 9.36 4.07 11.15 3.65 2.6 253.69 150.31 256.22 151.8.02 0 10.74 5.03 27.56-5.06l173.81-97.95s9.43-8.08 8.48-21.85l-1.02-25.85c-.34-2.65-1.5-5.86-2.46-5.86v-2.56c3.78 0 4.84 6.84 5.02 8.22l1.02 25.92c1.05 15.13-9.15 23.74-9.59 24.1l-173.96 98.06c-8.88 5.32-16.17 6.7-21.35 6.7Z"
      class="cls-3"
    />
    <path
      fill="#0074e8"
      d="M507.7 540s-34.47-24.15-49.18-16.04c-14.7 8.12-10.9 16.83-9.64 18.05 1.27 1.22 29.92 18.97 30.92 20.99 1.02 2.03 6.06 15.51-13.69 12.07 0 0-33.71-20.18-40.05-21.18-6.34-1.02-20.78-5.09-28.39 2.53-7.6 7.6-3.04 14.19-3.04 15.21s124.71 75.02 124.71 75.02 25.86 8.12 36-7.09c10.14-15.21-10.14-19.78-13.69-21.3-3.55-1.53-24.72-11.4-18.19-19.78 6.53-8.36 16.52.51 16.52.51s33.1 20.27 36.66 21.54c3.55 1.27 22.81 1.27 27.38-1.27 4.56-2.53 9.63-9.37 8.61-14.18-1.02-4.82-5.58-10.65-20.28-17.75-14.7-7.1-23.32-13.7-17.24-19.28 6.09-5.57 11.16-4.05 17.24 0 6.09 4.07 31.94 22.31 47.16 22.82 15.21.51 25.6-6.59 25.86-12.67.25-6.08 1-9.13-15.22-18.26-16.22-9.12-96.83-53.48-96.83-53.48l-39.65-10.14s-2.93-2.28-7.5.76c-4.56 3.05-7.61 6.09-8.62 10.15-1.02 4.05 1.52 11.16 10.14 13.69"
    />
    <path d="M552.05 492.94v78.8s-21.87 23.1-43.06 0v-76.95s28.2 11.95 43.06-1.85" class="cls-5" />
    <path
      d="M529.57 583.29h-.2c-7.71-.07-14.88-3.65-21.33-10.68l-.34-.37v-79.39l1.78.75c.28.12 27.61 11.47 41.69-1.6l2.15-2v82.25l-.35.37c-.42.44-10.25 10.67-23.41 10.67Zm-19.3-12.05c5.85 6.23 12.28 9.43 19.11 9.49h.2c10.73 0 19.39-7.77 21.2-9.52v-75.55c-13.46 9.8-34.28 3.3-40.5 1.01v74.58Z"
      class="cls-3"
    />
    <path
      d="M463.09 410.4s3.05 56.27 44.61 79.6c0 0 33.97 19.74 61.35-12.17 27.38-31.9 30.92-67.49 30.92-67.49s-62.36 72.05-136.88.06"
      class="cls-4"
    />
    <path
      d="M533.44 441.83c41.65 0 75.41-22.58 75.41-50.43s-33.76-50.44-75.41-50.44-75.41 22.58-75.41 50.44 33.76 50.43 75.41 50.43"
      class="cls-5"
    />
    <path
      d="M533.44 438.05c38.74 0 70.13-20.89 70.13-46.64s-31.4-46.65-70.13-46.65-70.13 20.89-70.13 46.65 31.4 46.64 70.13 46.64"
      class="cls-4"
    />
  </g>
</svg>
