<svg xmlns="http://www.w3.org/2000/svg" id="Calque_1" data-name="Calque 1" viewBox="0 0 1080 1080">
  <defs>
    <clipPath id="clippath">
      <path d="M31.44 32h1017.12v1016H31.44z" class="cls-1" />
    </clipPath>
    <clipPath id="clippath-1">
      <path
        d="m394.82 534.22 104.4 41.88 16.87 98.61c12.32 18.84 62.9-5.24 62.9-5.24l6.48-91.43 92.73-40.86c3.89-18.7-11.03-58.36-11.03-58.36l-75.87 12.32c-54.46-29.83-93.38 0-93.38 0l-88.2-14.91c-15.34 8.43-14.91 57.97-14.91 57.97"
        class="cls-5"
      />
    </clipPath>
    <clipPath id="clippath-2">
      <path d="M31.44 32h1017.12v1016H31.44z" class="cls-1" />
    </clipPath>
    <style>
      .cls-1 {
        fill: none;
      }
      .cls-4 {
        fill: #010101;
      }
      .cls-5 {
        fill: #3fb8d8;
      }
      .cls-6 {
        fill: #7ebfff;
      }
    </style>
  </defs>
  <g clip-path="url(#clippath)">
    <path
      fill="#0074e8"
      d="M540 1047.99c-280.42 0-508.55-227.89-508.55-508S259.58 32 540 32s508.56 227.88 508.56 507.99-228.14 508-508.56 508Zm0-953.04c-245.71 0-445.6 199.64-445.6 445.04S294.3 985.04 540 985.04s445.61-199.65 445.61-445.05S785.7 94.95 540 94.95Z"
    />
  </g>
  <g>
    <path
      d="m394.82 534.22 104.4 41.88 16.87 98.61c12.32 18.84 62.9-5.24 62.9-5.24l6.48-91.43 92.73-40.86c3.89-18.7-11.03-58.36-11.03-58.36l-75.87 12.32c-54.46-29.83-93.38 0-93.38 0l-88.2-14.91c-15.34 8.43-14.91 57.97-14.91 57.97"
      class="cls-5"
    />
    <g clip-path="url(#clippath-1)">
      <path fill="#0074e8" d="M394.39 461.33h287.7v232.23h-287.7z" />
    </g>
  </g>
  <g clip-path="url(#clippath-2)">
    <path
      d="M537.5 715.53c-100.11 0-181.56-81.34-181.56-181.31s81.45-181.31 181.56-181.31 181.57 81.33 181.57 181.31-81.45 181.31-181.57 181.31Zm0-352.13c-94.33 0-171.07 76.63-171.07 170.82s76.74 170.82 171.07 170.82 171.07-76.63 171.07-170.82S631.83 363.4 537.5 363.4Z"
      class="cls-4"
    />
    <path
      d="M537.5 685.01c-82.95 0-150.44-67.65-150.44-150.8s67.49-150.8 150.44-150.8 150.44 67.65 150.44 150.8-67.49 150.8-150.44 150.8Zm0-291.11c-77.17 0-139.95 62.94-139.95 140.31s62.78 140.31 139.95 140.31 139.95-62.94 139.95-140.31S614.67 393.9 537.5 393.9Z"
      class="cls-4"
    />
    <path
      fill="none"
      stroke="#010101"
      d="M540.56 555.91c11.98 0 21.7-9.72 21.7-21.69s-9.72-21.7-21.7-21.7-21.7 9.72-21.7 21.7 9.72 21.69 21.7 21.69Z"
    />
    <path
      d="m289.11 516.45-29.83-26.59s-20.1-4.54-7.79 13.28c12.33 17.85 37.61 36 37.61 36s9.08 11.06 22.04-7.79l33.72-35.67s3.24-16.85-11.67-9.72l-27.24 27.31s3.29-82.44 49.96-125.23c46.66-42.8 90.27-65.49 137.44-68.74 0 0 24.15-7.77.08-16.21 0 0-101.9 5.55-158.96 89.35-57.07 83.8-45.39 124-45.39 124"
      class="cls-6"
    />
    <path
      d="m788.39 560 30.29 26.06s20.18 4.2 7.54-13.43c-12.62-17.62-38.23-35.32-38.23-35.32s-9.26-10.89-21.91 8.16l-33.09 36.24s-2.95 16.93 11.83 9.54l26.77-27.8s-1.87 82.48-47.77 126.09c-45.91 43.62-89.12 67.08-136.23 71.13 0 0-24.02 8.2.2 16.21 0 0 101.78-7.31 157.37-92.1C800.76 600 788.39 560 788.39 560"
      class="cls-6"
    />
  </g>
</svg>
